<?xml version="1.0" encoding="utf-8"?>
<!-- Generator: Adobe Illustrator 16.0.0, SVG Export Plug-In . SVG Version: 6.00 Build 0)  -->
<!DOCTYPE svg PUBLIC "-//W3C//DTD SVG 1.1//EN" "http://www.w3.org/Graphics/SVG/1.1/DTD/svg11.dtd">
<svg version="1.1" id="Layer_1" xmlns="http://www.w3.org/2000/svg" xmlns:xlink="http://www.w3.org/1999/xlink" x="0px" y="0px"
	 width="265.4px" height="378.1px" viewBox="0 0 265.4 378.1" enable-background="new 0 0 265.4 378.1" xml:space="preserve">
<g id="illustration">
	<g>
		<defs>
			<rect id="SVGID_1_" x="-754.1" y="0" width="1019.5" height="662.5"/>
		</defs>
		<clipPath id="SVGID_2_">
			<use xlink:href="#SVGID_1_"  overflow="visible"/>
		</clipPath>
		<g id="XMLID_3203_" clip-path="url(#SVGID_2_)">
			<g id="XMLID_3545_">
				<g id="XMLID_3985_">
					<g id="XMLID_3986_">
						<path id="XMLID_1_" fill="#383838" d="M73.2,124l4.1,14.8c0.1,0.3,9.2,32.4,25.7,42.3c16,9.6,34.5-4.6,34.7-4.8l2.4-1.9
							l0.9,2.9c0.1,0.3,9.2,28.7,29.4,42.6c19.5,13.5,36.1,1.4,36.2,1.3l2.5,3.4c-0.2,0.1-19.1,14-41.2-1.2
							c-17.8-12.3-27.2-34.4-30-42.1c-6,3.9-22.1,12.4-37.1,3.4c-11.3-6.8-19.1-22.1-23.5-33"/>
					</g>
				</g>
				<g id="XMLID_3546_">
					<polygon id="XMLID_3984_" fill="#D5D5D5" points="196.2,213.3 270.2,362.1 277.1,263.7 					"/>
					<path id="XMLID_3844_" fill="#383838" d="M271,366l-77.4-155.6l84.6,52.7v0.6L271,366z M198.9,216.1l70.6,142l6.6-93.9
						L198.9,216.1z"/>
					<polygon id="XMLID_3843_" fill="#D5D5D5" points="330.9,281.7 12.1,91.3 34.4,78.4 364.2,262.5 					"/>
					<polygon id="XMLID_3842_" fill="#D5D5D5" points="12.1,91.1 23,111 307.1,292.8 330.9,281.7 					"/>
					<polygon id="XMLID_3841_" fill="#F2F2F2" points="333.8,283.7 15.1,93.3 34.4,82.1 364.2,266.2 					"/>
					<path id="XMLID_3831_" fill="#383838" d="M333,281.7l33.3-19.2L34.9,77.5l-0.5-0.3L12.3,90l0,0l-1.2,0.7l0,0l0.4,1.5l10.7,19.6
						l96.4,61.7l0,0l10.7,6.9l0,0l177.2,113.4l0.5,0.3l23.8-11.1l0,0l0.5-0.3l1.8-0.8L333,281.7z M330.9,280.4l-109.6-65.5
						l27.2-15.8L362,262.5L330.9,280.4z M130.5,160.6l23.9-14.1l92,51.3l-27.1,15.8L130.5,160.6z M128.4,159.4l-6.5-3.9l23.8-13.8
						l6.5,3.7L128.4,159.4z M34.4,79.6l109.1,60.9l-23.7,13.7l-105.4-63L34.4,79.6z M23.8,110.2l-8.7-16l103.6,61.9v14.8L23.8,110.2
						z M127.3,176.4l-6.5-4.2v-14.9l6.5,3.9V176.4z M129.4,162.5l88.7,53l-0.1,19l-88.6-56.7V162.5z M220.1,235.8l0.1-19.1
						l108.4,64.8l-21.4,10L220.1,235.8z"/>
					<g id="XMLID_3813_">
						<polygon id="XMLID_3830_" fill="#D5D5D5" points="184.4,189.9 184.4,185 207.7,198.6 207.2,203.2 						"/>
						<g id="XMLID_3814_">
							<polygon id="XMLID_3829_" fill="#D5D5D5" points="230,185 207.2,198.2 184.4,185 207.2,171.8 							"/>
							<polygon id="XMLID_3828_" fill="#D5D5D5" points="222.4,185 207.2,193.8 192.1,185 207.2,176.3 							"/>
							<path id="XMLID_3825_" fill="#F2F2F2" d="M207.2,173.4l-21.4,12.4l22.7,13.3l21.6-12.5L207.2,173.4z M207.2,193.8l-12.9-8
								l12.9-9.2l14.9,8.3L207.2,193.8z"/>
							<path id="XMLID_3821_" fill="#383838" d="M230.5,184.7L230.5,184.7l-0.5-0.3l-22.8-13.2l-22.8,13.2l0,0l-0.5,0.3l0,0v0.5v5
								l22.8,13.2l0.5,0.3l0,0l0,0l0.5-0.3l22.8-13v-5.2V184.7L230.5,184.7z M206.8,202.4l-21.9-12.7v-4l21.9,12.7V202.4z
								 M207.2,197.7L185.3,185l21.9-12.7l21.9,12.7L207.2,197.7z"/>
							<path id="XMLID_3815_" fill="#383838" d="M222.6,185.4l0.7-0.4l-15.6-9l-0.5-0.3l-16.1,9.3l16.1,9.3l13.9-8L222.6,185.4
								L222.6,185.4z M207.7,177l13.8,8l-2.4,1.4l-11.4-6.5V177z M196.2,186.9l11-6.2l11,6.2l-11,6.3L196.2,186.9z"/>
						</g>
					</g>
					<g id="XMLID_3547_">
						<g id="XMLID_3726_">
							<polygon id="XMLID_3812_" fill="#D5D5D5" points="12.1,63.8 34.5,51.2 65.3,69 42.9,81.6 							"/>
							<polygon id="XMLID_3811_" fill="#F2F2F2" points="12.1,67.9 34.5,55.4 65.3,73.1 42.9,85.7 							"/>
							<path id="XMLID_3810_" fill="#383838" d="M85.5,102.3C76.2,95.6,66.4,81.7,66.4,69v-0.6L34.5,50l-1.1,0.6V53l1.1-0.6L63.2,69
								L42.9,80.3l-9.5-5.5v3.8l1.3,22L61,121.8l25-14.6v-4.6L85.5,102.3z"/>
							<path id="XMLID_3777_" fill="#D5D5D5" d="M42.9,81.6L12.1,63.8v27.4l49.1,29.4v-3.4C50.9,109.7,42.9,93.9,42.9,81.6z"/>
							<path id="XMLID_3770_" fill="#383838" d="M44,82.2l22.4-12.6v-1.2L34.5,50L12.1,62.6L11,63.2l0,0l0,0v1.2v27.3l51.2,30.7
								v-5.8l-0.4-0.3C52.2,109.3,44.3,94.1,44,82.2z M34.5,52.4L63.2,69L42.9,80.3L14.3,63.8L34.5,52.4z M60.2,118.7l-47-28.1v-25
								l20.3,11.7l8.4,4.8c0.3,12.6,8.2,27.9,18.3,35.5V118.7z"/>
							<path id="XMLID_3769_" fill="#D5D5D5" d="M65.7,93l-1.3-3.1c-1-2.6-4-3.8-6.5-2.7c-2.6,1-3.8,4-2.7,6.6l1.2,3.1
								c0.5,1.2,1.5,2.2,2.7,2.7c0.6,0.3,1.3,0.4,1.9,0.4c0.6,0,1.3-0.1,1.9-0.4C65.5,98.5,66.8,95.6,65.7,93z"/>
							
								<rect id="XMLID_3768_" x="181.5" y="-62.5" transform="matrix(-0.2497 -0.9683 0.9683 -0.2497 169.9486 254.5384)" fill="#383838" width="4.2" height="247.8"/>
							<path id="XMLID_3767_" fill="#D5D5D5" d="M63.6,96.1L63.6,96.1c-2.1,0-3.8-1.7-3.8-3.8l0,0c0-2.1,1.7-3.8,3.8-3.8l0,0
								c2.1,0,3.8,1.7,3.8,3.8l0,0C67.4,94.4,65.7,96.1,63.6,96.1z"/>
							<path id="XMLID_3764_" fill="#383838" d="M63.6,97.4c-2.8,0-5.1-2.3-5.1-5.1s2.3-5.1,5.1-5.1c2.8,0,5.1,2.3,5.1,5.1
								S66.4,97.4,63.6,97.4z M63.6,89.8c-1.4,0-2.5,1.1-2.5,2.5s1.1,2.5,2.5,2.5c1.4,0,2.5-1.1,2.5-2.5S65,89.8,63.6,89.8z"/>
							<g id="XMLID_3727_">
								<path id="XMLID_3761_" fill="#383838" d="M25.5,93.7l-9.2-5.3V77.7l9.2,5.3V93.7z M17.9,87.5L24,91v-7l-6.1-3.5V87.5z"/>
							</g>
						</g>
						<g id="XMLID_3548_">
							<polygon id="XMLID_3725_" fill="#D5D5D5" points="11.6,63.8 11.6,58.7 35.6,72.8 35.2,77.5 							"/>
							<g id="XMLID_3549_">
								<polygon id="XMLID_3723_" fill="#D5D5D5" points="58.8,58.7 35.2,72.3 11.6,58.7 35.2,45.1 								"/>
								<polygon id="XMLID_3683_" fill="#D5D5D5" points="50.9,58.7 35.2,67.8 19.5,58.7 35.2,49.6 								"/>
								<path id="XMLID_3558_" fill="#F2F2F2" d="M35.2,46.7L13,59.5l23.5,13.7l22.3-12.9L35.2,46.7z M35.2,67.8l-13.4-8.2L35.2,50
									l15.5,8.6L35.2,67.8z"/>
								<path id="XMLID_3554_" fill="#383838" d="M59.3,58.4L59.3,58.4l-0.5-0.3L35.2,44.5L11.6,58.2l0,0l-0.5,0.3l0,0V59v5.2
									l23.6,13.7l0.5,0.3l0,0l0,0l0.5-0.3l23.6-13.5V59V58.4L59.3,58.4z M34.7,76.7L12,63.6v-4.1l22.7,13.1V76.7z M35.2,71.8
									L12.5,58.7l22.7-13.1l22.7,13.1L35.2,71.8z"/>
								<path id="XMLID_3550_" fill="#383838" d="M51.1,59.1l0.7-0.4l-16.2-9.3l-0.5-0.3l-16.6,9.6l16.6,9.6L49.5,60L51.1,59.1
									L51.1,59.1z M35.6,50.5l14.3,8.2l-2.5,1.4l-11.8-6.7V50.5z M23.8,60.7l11.3-6.4l11.4,6.4l-11.4,6.6L23.8,60.7z"/>
							</g>
						</g>
					</g>
				</g>
			</g>
		</g>
	</g>
</g>
</svg>
