<?xml version="1.0" encoding="utf-8"?>
<!-- Generator: Adobe Illustrator 16.0.0, SVG Export Plug-In . SVG Version: 6.00 Build 0)  -->
<!DOCTYPE svg PUBLIC "-//W3C//DTD SVG 1.1//EN" "http://www.w3.org/Graphics/SVG/1.1/DTD/svg11.dtd">
<svg version="1.1" id="Layer_1" xmlns="http://www.w3.org/2000/svg" xmlns:xlink="http://www.w3.org/1999/xlink" x="0px" y="0px"
	 width="90.3px" height="66.5px" viewBox="0 0 90.3 66.5" enable-background="new 0 0 90.3 66.5" xml:space="preserve">
<g id="XMLID_3985_">
	<path id="XMLID_4008_" fill="#DB1F48" d="M86.2,37L86.2,37l0-0.1c0-0.1-0.1-0.2-0.1-0.3l-3.2-13.4l-1.5,6.9
		c-1.9-2.7-4.8-5.2-8.6-7.4c-15.4-8.9-40.5-8.9-55.9,0c-3.8,2.2-6.7,4.7-8.6,7.4L7,23.4l-1.4,5.8c0,0.1-1.3,5.8-1.4,5.9l0,0l0,0.1
		C2,42.3,7.3,51,16.9,56.5c15.4,8.9,40.5,8.9,55.9,0C82.3,51,88.4,44.1,86.2,37z"/>
	<polygon id="XMLID_4007_" fill="#F44573" points="27.8,46.1 26,60.3 9.1,51 12.4,38.4 	"/>
	<path id="XMLID_4003_" fill="#383838" d="M87.2,36.7l-3.8-14.8l-2.6,5.8c-1.9-2.2-4.5-4.2-7.5-5.9c-15.7-9.1-41.3-9.1-57,0
		c-3,1.7-5.5,3.7-7.5,5.9L6,22.7l-1.4,6.1c0,0.1,0,0.1-0.8,3.3c-0.3,1.3-0.6,2.6-0.7,2.8c-2.3,7.5,3.1,16.7,13.1,22.6
		c7.9,4.5,18.2,6.8,28.5,6.8c10.3,0,20.6-2.3,28.5-6.8C84.4,51,89.3,43.7,87.2,36.7z M83.1,28.9l-0.7,1.5l0.5-2.4L83.1,28.9z
		 M5.2,35.4c0-0.1,0.3-1.4,0.7-2.8c0.3-1.4,0.7-2.9,0.7-3.1l0.2-1l0.8,4.3l1.4-2c1.9-2.7,4.7-5.1,8.3-7.1c15.1-8.7,39.7-8.7,54.9,0
		c3.6,2.1,6.3,4.5,8.3,7.1l1,1.4l-1.4,2.9l-10.9,8.2L52,48l1,13.7c-2.7,0.3-5.4,0.5-8.1,0.5V48.6l-4-0.3L40.3,62
		c-8.4-0.6-16.5-2.7-22.9-6.4C8.2,50.3,3.2,42,5.2,35.4z"/>
	<path id="XMLID_4002_" fill="#DB1F48" d="M71.9,10.7c14.9,8.6,14.9,22.6,0,31.2s-39.1,8.6-54.1,0c-14.9-8.6-14.9-22.6,0-31.2
		C32.7,2.1,56.9,2.1,71.9,10.7z"/>
	<path id="XMLID_4001_" fill="#F44573" d="M68.2,14.6c12.9,7.5,12.9,19.5,0,27c-12.9,7.4-33.8,7.4-46.7,0c-12.9-7.5-12.9-19.5,0-27
		C34.4,7.1,55.3,7.1,68.2,14.6z"/>
	<path id="XMLID_3997_" fill="#383838" d="M72.4,9.8C57.2,1,32.5,1,17.3,9.8C9.7,14.2,5.6,20,5.6,26.3c0,6.3,4.2,12.2,11.7,16.5
		c7.6,4.4,17.6,6.6,27.5,6.6s20-2.2,27.6-6.6c7.6-4.4,11.7-10.2,11.7-16.5S79.9,14.2,72.4,9.8z M67.7,12.2c5.9,3.4,9.2,7.9,9.2,12.6
		s-3.3,9.2-9.2,12.6c-12.6,7.3-33.1,7.3-45.7,0c-5.9-3.4-9.1-7.9-9.1-12.6s3.2-9.2,9.1-12.6c6.3-3.6,14.6-5.4,22.8-5.4
		C53.1,6.8,61.4,8.6,67.7,12.2z M71.3,41c-14.6,8.4-38.4,8.4-53,0c-6.9-4-10.7-9.2-10.7-14.7c0-5.5,3.8-10.7,10.7-14.7
		c1.3-0.8,2.7-1.4,4.2-2.1c-0.5,0.3-1.1,0.5-1.6,0.8c-6.6,3.8-10.2,8.9-10.2,14.4s3.6,10.6,10.2,14.4c6.6,3.8,15.2,5.7,23.9,5.7
		c8.7,0,17.3-1.9,23.9-5.7c6.6-3.8,10.2-8.9,10.2-14.4s-3.6-10.6-10.2-14.4c-0.5-0.3-1-0.6-1.6-0.8c1.5,0.6,2.9,1.3,4.2,2.1
		c6.9,4,10.7,9.2,10.7,14.7S78.2,37,71.3,41z"/>
	<path id="XMLID_3996_" fill="#01949A" d="M64.3,16.8L64.3,16.8L64.3,16.8c-0.6-0.8-1.3-1.6-2.3-2.4l-9-9.4H37.2l-9.9,10.1L26.5,16
		c-4.8,4.6-2.9,9.8,3.9,13.7c8.1,4.7,21.2,4.7,29.4,0C65.9,26.3,67.4,21.1,64.3,16.8z"/>
	<path id="XMLID_3993_" fill="#383838" d="M45.1,34.3c-5.5,0-11-1.2-15.2-3.6c-4.3-2.5-6.7-5.4-7.1-8.5c-0.3-2.4,0.7-4.8,2.9-6.9
		l0.8-0.8L36.8,3.9h16.7l9.3,9.7c0.9,0.7,1.8,1.6,2.4,2.5l-0.9,0.6l0.9-0.6c1.5,2.1,2.1,4.5,1.5,6.9c-0.7,3-2.9,5.6-6.4,7.6
		C56.1,33.1,50.6,34.3,45.1,34.3z M37.7,6.1L27.2,16.8c-1.8,1.7-2.5,3.5-2.3,5.2c0.3,2.4,2.4,4.8,6,6.9c7.8,4.5,20.5,4.5,28.3,0
		c3-1.7,4.9-3.9,5.4-6.3c0.4-1.7,0-3.5-1.2-5.2v0c-0.5-0.7-1.2-1.5-2.1-2.2l-8.8-9.2H37.7z"/>
	<path id="XMLID_3992_" fill="#01949A" d="M50.7,2.4c3.1,1.8,3.1,4.7,0,6.5s-8.2,1.8-11.3,0c-3.1-1.8-3.1-4.7,0-6.5
		C42.6,0.6,47.6,0.6,50.7,2.4z"/>
	<path id="XMLID_3991_" fill="#56D8D8" d="M50.8,5.3c3.1,1.8,3.1,4.7,0,6.5c-3.1,1.8-8.2,1.8-11.3,0s-3.1-4.7,0-6.5
		S47.7,3.5,50.8,5.3z"/>
	<path id="XMLID_3988_" fill="#383838" d="M45.1,11.3c-2.2,0-4.4-0.5-6.2-1.5c-1.8-1.1-2.9-2.5-2.9-4.2s1-3.1,2.9-4.2
		c3.5-2,8.9-2,12.3,0l0,0c1.8,1.1,2.9,2.5,2.9,4.2s-1,3.1-2.9,4.2C49.5,10.8,47.3,11.3,45.1,11.3z M45.1,2.1c-1.9,0-3.7,0.4-5.1,1.2
		c-1.2,0.7-1.8,1.5-1.8,2.3c0,0.8,0.7,1.7,1.8,2.3c2.8,1.6,7.4,1.6,10.2,0C51.3,7.3,52,6.5,52,5.7c0-0.8-0.7-1.7-1.8-2.3l0,0
		C48.8,2.5,47,2.1,45.1,2.1z"/>
</g>
</svg>
