<?xml version="1.0" encoding="utf-8"?>
<!-- Generator: Adobe Illustrator 16.0.0, SVG Export Plug-In . SVG Version: 6.00 Build 0)  -->
<!DOCTYPE svg PUBLIC "-//W3C//DTD SVG 1.1//EN" "http://www.w3.org/Graphics/SVG/1.1/DTD/svg11.dtd">
<svg version="1.1" id="Layer_1" xmlns="http://www.w3.org/2000/svg" xmlns:xlink="http://www.w3.org/1999/xlink" x="0px" y="0px"
	 width="1019.5px" height="662.5px" viewBox="0 0 1019.5 662.5" enable-background="new 0 0 1019.5 662.5" xml:space="preserve">
<g id="illustration">
	<g>
		<defs>
			<rect id="SVGID_1_" width="1019.5" height="662.5"/>
		</defs>
		<clipPath id="SVGID_2_">
			<use xlink:href="#SVGID_1_"  overflow="visible"/>
		</clipPath>
		<g id="XMLID_3203_" clip-path="url(#SVGID_2_)">
			<g id="XMLID_4360_">
				<polygon id="XMLID_4368_" fill="#F2F2F2" points="96.4,700.2 1068.1,143.8 1068.1,700.2 				"/>
				<path id="XMLID_4364_" fill="#383838" d="M1069.1,701.3H92.4l3.5-2L1069.1,142V701.3z M100.4,699.2H1067V145.6L100.4,699.2z"/>
				<g id="XMLID_4361_">
					<path id="XMLID_4363_" fill="#F2F2F2" d="M717.9,776l477.5-277L717.9,776z"/>
					
						<rect id="XMLID_4362_" x="955.1" y="361.6" transform="matrix(-0.5015 -0.8652 0.8652 -0.5015 884.588 1784.8502)" fill="#383838" width="2.8" height="552"/>
				</g>
			</g>
			<g id="XMLID_4346_">
				<path id="XMLID_4359_" fill="#D5D5D5" d="M329.4,620.8l-20.8,12c-4.9,2.8-10.9,2.8-15.8,0l-20.8-12c-2.9-1.7-2.9-5.9,0-7.6
					l26.5-15.3c1.4-0.8,3-0.8,4.4,0l26.5,15.3C332.3,614.8,332.3,619.1,329.4,620.8z"/>
				<g id="_x33__3_">
					<g id="XMLID_4347_">
						<polygon id="XMLID_4358_" fill="#F44573" points="324.4,579.2 296.9,563.3 269.3,579.2 269.3,579.2 269.3,611 296.9,626.9 
							296.9,595.2 						"/>
						<polygon id="XMLID_4357_" fill="#DB1F48" points="269.4,610.9 296.9,626.8 296.9,595.1 269.4,579.1 269.4,579.1 						"/>
						<path id="XMLID_4352_" fill="#383838" d="M324.9,578.9l-28.1-16.2l-28,16.2h-0.1l0,0v0.6l0,0v31.8l27.5,15.9l0,0l0.5,0.3
							l0.6-0.3l0,0l27.2-15.7l0.3-0.2v-31.8l0,0v-0.6H324.9z M296.9,564l12.9,7.5l-26.4,15.2l-12.9-7.5L296.9,564z M296.3,625.9
							l-26.4-15.2v-30.5l26.4,15.2V625.9z M308.1,588l-11.2,6.5L284,587l26.4-15.2l12.9,7.5L308.1,588z"/>
						<path id="XMLID_4349_" fill="#383838" d="M285.9,595.1l-5.1-2.9c-0.6-0.3-1.1-0.4-1.6-0.1c-0.5,0.3-0.8,1-0.8,1.8
							c0,1.4,0.8,3,1.9,3.6l5.1,2.9c0.3,0.2,0.6,0.3,0.9,0.3c0.2,0,0.5-0.1,0.7-0.2c0.5-0.3,0.8-1,0.8-1.8
							C287.8,597.3,287,595.7,285.9,595.1z M286.4,599.5c-0.2,0.1-0.4,0-0.5-0.1l-5.1-2.9c-0.7-0.4-1.3-1.6-1.3-2.6
							c0-0.5,0.2-0.8,0.3-0.8c0.2-0.1,0.4,0,0.5,0.1l0.4,0.2c0.1,1.2,0.8,2.4,1.7,3l4.4,2.5C286.7,599.2,286.6,599.5,286.4,599.5z"
							/>
						<path id="XMLID_4348_" fill="#F44573" d="M320.4,601.7c-0.3-0.2-0.6-0.1-0.9,0l-4.1,2.3c-0.6,0.3-1.1,1.2-1.1,2v4.4
							c0,0.5,0.2,0.8,0.5,1c0.1,0.1,0.2,0.1,0.4,0.1s0.3,0,0.5-0.2l4.1-2.3l0,0c0.6-0.3,1.1-1.2,1.1-2v-4.4
							C320.8,602.2,320.7,601.9,320.4,601.7z"/>
					</g>
				</g>
			</g>
			<g id="XMLID_4329_">
				<path id="XMLID_4345_" fill="#D5D5D5" d="M380.6,633.3l-20.8,12c-4.9,2.8-10.9,2.8-15.8,0l-20.8-12c-2.9-1.7-2.9-5.9,0-7.6
					l26.5-15.3c1.4-0.8,3-0.8,4.4,0l26.5,15.3C383.5,627.4,383.5,631.6,380.6,633.3z"/>
				<g id="_x33__2_">
					<g id="XMLID_4330_">
						<polygon id="XMLID_4341_" fill="#56D8D8" points="375,592.7 347.5,576.8 320,592.7 320,592.7 320,624.5 347.5,640.4 
							347.5,608.7 						"/>
						<polygon id="XMLID_4340_" fill="#01949A" points="320,624.4 347.5,640.3 347.5,608.6 320,592.6 320,592.6 						"/>
						<path id="XMLID_4335_" fill="#383838" d="M375.5,592.4l-28.1-16.2l-28,16.2h-0.1l0,0v0.6l0,0v31.8l27.5,15.9l0,0l0.6,0.3
							l0.5-0.3l0,0l27.2-15.7l0.3-0.2V593l0,0L375.5,592.4L375.5,592.4z M347.5,577.5l12.9,7.5L334,600.2l-12.9-7.5L347.5,577.5z
							 M346.9,639.4l-26.4-15.2v-30.5l26.4,15.2V639.4z M358.7,601.5l-11.2,6.5l-12.9-7.5l26.4-15.2l12.9,7.5L358.7,601.5z"/>
						<path id="XMLID_4332_" fill="#383838" d="M336.5,608.6l-5.1-2.9c-0.6-0.3-1.1-0.4-1.6-0.1c-0.5,0.3-0.8,1-0.8,1.8
							c0,1.4,0.8,3,1.9,3.6l5.1,2.9c0.3,0.2,0.6,0.3,0.9,0.3c0.2,0,0.5-0.1,0.7-0.2c0.5-0.3,0.8-1,0.8-1.8
							C338.4,610.8,337.6,609.3,336.5,608.6z M337.1,613c-0.2,0.1-0.4,0-0.5-0.1l-5.1-2.9c-0.7-0.4-1.3-1.6-1.3-2.6
							c0-0.5,0.2-0.8,0.3-0.8c0.2-0.1,0.4,0,0.5,0.1l0.4,0.2c0.1,1.2,0.8,2.4,1.7,3l4.4,2.5C337.3,612.7,337.2,613,337.1,613z"/>
						<path id="XMLID_4331_" fill="#56D8D8" d="M371,615.2c-0.3-0.2-0.6-0.1-0.9,0l-4.1,2.3c-0.6,0.4-1.1,1.2-1.1,2v4.4
							c0,0.5,0.2,0.8,0.5,1c0.1,0.1,0.2,0.1,0.4,0.1s0.3,0,0.5-0.2l4.1-2.3l0,0c0.6-0.3,1.1-1.2,1.1-2v-4.4
							C371.5,615.7,371.3,615.4,371,615.2z"/>
					</g>
				</g>
			</g>
			<g id="XMLID_4051_">
				<path id="XMLID_4328_" fill="#D5D5D5" d="M839.6,629.6l-25.8,14.9c-6.1,3.5-13.5,3.5-19.6,0l-25.8-14.9c-3.6-2.1-3.6-7.3,0-9.4
					l32.9-19c1.7-1,3.8-1,5.5,0l32.9,19C843.2,622.2,843.2,627.5,839.6,629.6z"/>
				<g id="_x31__2_">
					<g id="XMLID_4322_">
						<path id="XMLID_4327_" fill="#D5D5D5" d="M827.6,620.4c0.9-0.6,0.8-1.5-0.3-2.1l-15.1-8.7c-1.1-0.6-2.8-0.7-3.7-0.2
							l-22.3,12.9c-0.5,0.3-0.6,0.6-0.6,1v-0.1v1.7v0.3c0,0.4,0.4,0.8,0.9,1.1l15.1,8.7c1.1,0.6,2.8,0.7,3.7,0.2l22.3-12.9
							C828.4,621.9,828.4,621,827.6,620.4z"/>
						<path id="XMLID_4323_" fill="#383838" d="M828.8,619.5c0-0.6-0.4-1.2-1.2-1.7l-15.1-8.7c-1.3-0.7-3.1-0.8-4.3-0.2l-22.3,12.9
							c-0.6,0.3-0.9,0.8-0.9,1.4l0,0v2.1c0.1,0.6,0.5,1.1,1.2,1.5l15.1,8.7c0.7,0.4,1.5,0.6,2.4,0.6c0.7,0,1.4-0.1,1.9-0.4
							l22.3-12.9c0.6-0.3,0.9-0.8,0.9-1.3c0-0.4-0.1-0.7-0.4-1.1C828.6,620.2,828.8,619.8,828.8,619.5z M786.1,623.3L786.1,623.3
							c0-0.1,0-0.3,0.4-0.5l22.3-12.9c0.8-0.5,2.2-0.4,3.2,0.2l15.1,8.7c0.5,0.3,0.6,0.6,0.6,0.7c0,0.2-0.2,0.4-0.4,0.4l-0.7,0.4
							l0.2,0.2L805.1,633c-0.9,0.5-2.4,0.4-3.4-0.2l-15.1-8.7c-0.2-0.1-0.4-0.2-0.5-0.4V623.3L786.1,623.3z M827.3,621.9L805,634.7
							c-0.8,0.5-2.2,0.4-3.2-0.2l-15.1-8.7c-0.4-0.2-0.6-0.5-0.6-0.6v-0.7c0.1,0.1,0.1,0.1,0.2,0.2l15.1,8.7
							c0.6,0.4,1.5,0.6,2.2,0.6c0.7,0,1.3-0.1,1.7-0.4l21.9-12.6c0.2,0.2,0.4,0.4,0.4,0.6C827.6,621.6,827.4,621.8,827.3,621.9z"/>
					</g>
					<g id="XMLID_4290_">
						<g id="XMLID_4305_">
							<path id="XMLID_4321_" fill="#D5D5D5" d="M810,609.1L810,609.1c-0.7,0-1.3-0.6-1.3-1.3v-41.1c0-5.7,3-10.9,7.8-13.8l8.8-5.3
								c0.6-0.4,1.4-0.2,1.8,0.4l0,0c0.4,0.6,0.2,1.4-0.4,1.8l-8.8,5.3c-4.1,2.4-6.6,6.8-6.6,11.6v41.1
								C811.3,608.5,810.7,609.1,810,609.1z"/>
							<path id="XMLID_4306_" fill="#383838" d="M810,609.6c-1,0-1.8-0.8-1.8-1.8v-41.1c0-5.8,3.1-11.3,8.1-14.3l8.8-5.3
								c0.9-0.5,2-0.2,2.5,0.6c0.3,0.4,0.3,0.9,0.2,1.4c-0.1,0.5-0.4,0.9-0.8,1.1l-8.8,5.3c-3.9,2.3-6.3,6.6-6.3,11.1v41.1
								C811.8,608.8,811,609.6,810,609.6z M826,548c-0.1,0-0.3,0-0.4,0.1l-8.8,5.3c-4.7,2.8-7.6,7.9-7.6,13.3v41.1
								c0,0.4,0.3,0.7,0.7,0.7c0.4,0,0.7-0.3,0.7-0.7v-41.1c0-4.9,2.6-9.5,6.8-12.1l8.8-5.3c0.2-0.1,0.3-0.3,0.3-0.5s0-0.4-0.1-0.6
								C826.5,548.1,826.3,548,826,548z"/>
						</g>
						<g id="XMLID_4300_">
							<path id="XMLID_4304_" fill="#D5D5D5" d="M827.4,618.3L827.4,618.3c-0.7,0-1.3-0.6-1.3-1.3v-41.1c0-5.7,3-10.9,7.8-13.8
								l8.8-5.3c0.6-0.4,1.4-0.2,1.8,0.4l0,0c0.4,0.6,0.2,1.4-0.4,1.8l-8.8,5.3c-4.1,2.4-6.6,6.8-6.6,11.6V617
								C828.7,617.7,828.1,618.3,827.4,618.3z"/>
							<path id="XMLID_4301_" fill="#383838" d="M827.4,618.8c-1,0-1.8-0.8-1.8-1.8v-41.1c0-5.8,3.1-11.3,8.1-14.3l8.8-5.3
								c0.4-0.2,0.9-0.3,1.4-0.2c0.5,0.1,0.9,0.4,1.1,0.8c0.3,0.4,0.3,0.9,0.2,1.4c-0.1,0.5-0.4,0.9-0.8,1.1l-8.8,5.3
								c-3.9,2.3-6.3,6.6-6.3,11.1V617C829.3,618,828.4,618.8,827.4,618.8z M843.5,557.2c-0.1,0-0.3,0-0.4,0.1l-8.8,5.3
								c-4.7,2.8-7.6,7.9-7.6,13.3V617c0,0.4,0.3,0.7,0.7,0.7c0.4,0,0.7-0.3,0.7-0.7v-41.1c0-4.9,2.6-9.5,6.8-12l8.8-5.3
								c0.2-0.1,0.3-0.3,0.3-0.5c0-0.2,0-0.4-0.1-0.6C843.8,557.3,843.6,557.2,843.5,557.2C843.6,557.2,843.5,557.2,843.5,557.2z"/>
						</g>
						<g id="XMLID_4291_">
							<path id="XMLID_4297_" fill="#D5D5D5" d="M824.9,596c-0.6,0-1.1-0.2-1.7-0.5l-10.9-6.3c-1.8-1.1-3.3-3.8-3.3-6.2v-0.6
								c0-1.5,0.6-2.7,1.6-3.3c0.9-0.5,2-0.5,3,0.1l10.9,6.3c1.8,1.1,3.3,3.8,3.3,6.2v0.6c0,1.5-0.6,2.7-1.6,3.3
								C825.8,595.9,825.4,596,824.9,596z M824.5,593.3c0.3,0.2,0.4,0.2,0.4,0.1c0.1,0,0.3-0.3,0.3-1v-0.6c0-1.5-0.9-3.3-2-3.9
								l-10.9-6.3c-0.3-0.1-0.4-0.2-0.4-0.1c-0.1,0-0.3,0.3-0.3,1v0.6c0,1.5,0.9,3.3,2,3.9L824.5,593.3z"/>
							<path id="XMLID_4292_" fill="#383838" d="M824.9,596.6c-0.7,0-1.3-0.2-2-0.6l-10.9-6.3c-2-1.2-3.6-4.1-3.6-6.7v-0.6
								c0-1.7,0.7-3.1,1.8-3.7c1.1-0.6,2.4-0.6,3.6,0.1l10.9,6.3c2,1.2,3.6,4.1,3.6,6.7v0.6c0,1.7-0.7,3.1-1.8,3.7
								C826,596.4,825.5,596.6,824.9,596.6z M811.9,579.4c-0.4,0-0.7,0.1-1.1,0.3c-0.8,0.5-1.3,1.5-1.3,2.8v0.6c0,2.2,1.3,4.7,3,5.7
								l10.9,6.3c0.8,0.5,1.8,0.5,2.5,0.1c0.8-0.5,1.3-1.5,1.3-2.8v-0.6c0-2.2-1.4-4.7-3-5.7l-10.9-6.3
								C812.9,579.5,812.4,579.4,811.9,579.4z M824.9,594c-0.3,0-0.5-0.1-0.7-0.2l0,0l-10.9-6.3c-1.2-0.7-2.3-2.7-2.3-4.4v-0.6
								c0-0.7,0.2-1.3,0.5-1.5s0.7,0,1,0.1l10.9,6.3c1.2,0.7,2.3,2.7,2.3,4.4v0.6c0,0.7-0.2,1.2-0.5,1.5
								C825.2,594,825.1,594,824.9,594z M812.2,582.1c0,0.1,0,0.2,0,0.3v0.6c0,1.3,0.8,2.9,1.7,3.5l10.7,6.2c0-0.1,0-0.2,0-0.3v-0.6
								c0-1.3-0.8-2.9-1.7-3.5L812.2,582.1z"/>
						</g>
					</g>
					<g id="XMLID_4063_">
						<polygon id="XMLID_4289_" fill="#F44573" points="818.6,588.5 791.1,572.6 763.6,588.5 763.6,588.5 763.6,620.2 791.1,636.1 
							791.1,604.4 						"/>
						<polygon id="XMLID_4288_" fill="#DB1F48" points="763.6,620.1 791.1,636 791.1,604.3 763.6,588.3 763.6,588.3 						"/>
						<path id="XMLID_4283_" fill="#383838" d="M819.1,588.1L791,571.9l-28,16.2h-0.1l0,0v0.6l0,0v31.8l27.5,15.9l0,0l0.5,0.3
							l0.6-0.3l0,0l27.2-15.7l0.3-0.2v-31.8l0,0L819.1,588.1L819.1,588.1z M791.1,573.2l12.9,7.5l-26.4,15.2l-12.9-7.5L791.1,573.2z
							 M790.5,635.1l-26.4-15.2v-30.5l26.4,15.2V635.1z M802.3,597.2l-11.2,6.5l-12.9-7.5l26.4-15.2l12.9,7.5L802.3,597.2z"/>
						<path id="XMLID_4222_" fill="#383838" d="M780.1,604.4l-5.1-2.9c-0.6-0.3-1.1-0.4-1.6-0.1c-0.5,0.3-0.8,1-0.8,1.8
							c0,1.4,0.8,3,1.9,3.6l5.1,2.9c0.3,0.2,0.6,0.3,0.9,0.3c0.2,0,0.5-0.1,0.7-0.2c0.5-0.3,0.8-1,0.8-1.8
							C782,606.5,781.2,605,780.1,604.4z M780.6,608.8c-0.2,0.1-0.4,0-0.5-0.1l-5.1-2.9c-0.7-0.4-1.3-1.6-1.3-2.6
							c0-0.5,0.2-0.8,0.3-0.8c0.2-0.1,0.4,0,0.5,0.1l0.4,0.2c0.1,1.2,0.8,2.4,1.7,3l4.4,2.5C780.9,608.5,780.8,608.7,780.6,608.8z"
							/>
						<path id="XMLID_4064_" fill="#F44573" d="M814.6,610.9c-0.3-0.1-0.6-0.1-0.9,0l-4.1,2.3c-0.6,0.3-1.1,1.2-1.1,2v4.4
							c0,0.5,0.2,0.8,0.5,1c0.1,0.1,0.2,0.1,0.4,0.1c0.2,0,0.3,0,0.5-0.1l4.1-2.3l0,0c0.6-0.4,1.1-1.2,1.1-2v-4.4
							C815.1,611.5,814.9,611.1,814.6,610.9z"/>
					</g>
					<g id="XMLID_4052_">
						<path id="XMLID_4062_" fill="#D5D5D5" d="M830.5,614.2l-3.8-2.1l0,0c-0.5-0.3-1-0.4-1.5-0.5c-3.8-0.6-7.7,3.2-8.7,8.5
							c-0.8,4.2,0.5,7.8,3,9.2l0,0l3.6,2l0.8-1.8c2.6-1,4.9-3.9,5.7-7.6c0.5-2,0.4-3.9,0-5.6L830.5,614.2z"/>
						<path id="XMLID_4059_" fill="#383838" d="M833,615.8c-0.5-0.8-1.1-1.4-1.8-1.8l0,0l-4.8-2.7l0,0c-0.4-0.2-0.7-0.3-1.1-0.3
							c-4.1-0.7-8.3,3.3-9.3,8.9c-0.8,4.3,0.5,8.2,3.3,9.8l3.7,2c0.7,0.5,1.5,0.8,2.3,0.9c0.2,0,0.4,0,0.6,0c3.6,0,7.2-3.6,8.3-8.4
							C834.9,621.1,834.5,617.9,833,615.8z M817.1,620.1c0.9-4.6,4.1-8.1,7.3-8.1c0.2,0,0.5,0,0.7,0.1c0.4,0.1,0.9,0.2,1.3,0.5
							l1.2,0.6c-3.5,0.5-6.7,4.1-7.6,8.9c-0.5,2.7-0.2,5.2,0.8,7.1l-1-0.5C817.5,627.4,816.4,623.9,817.1,620.1z"/>
						<g id="XMLID_4055_">
							<path id="XMLID_4056_" fill="#D5D5D5" d="M826.6,629.5c-0.1,0-0.3,0-0.4,0c-0.9-0.1-1.7-0.6-2.3-1.4
								c-0.9-1.3-1.3-3.3-0.9-5.3c0.7-3.5,3.3-6.1,5.8-5.7c0.9,0.1,1.7,0.7,2.2,1.5c0.9,1.4,1.2,3.4,0.7,5.4l0,0
								C831,627.2,828.8,629.5,826.6,629.5z M828.3,617.6c-2,0-4.1,2.3-4.7,5.3c-0.4,1.9-0.1,3.7,0.8,4.9c0.5,0.7,1.2,1.1,1.9,1.2
								c2.1,0.2,4.3-2,5-5c0.4-1.9,0.2-3.8-0.6-5c-0.5-0.7-1.1-1.2-1.9-1.3C828.6,617.6,828.4,617.6,828.3,617.6z"/>
						</g>
						<path id="XMLID_4054_" fill="#D5D5D5" d="M829,623.7c-0.4,1.8-1.7,3-2.9,2.9c-1.2-0.2-2-1.7-1.6-3.5c0.4-1.9,1.7-3.2,3-3
							C828.7,620.2,829.4,621.9,829,623.7z"/>
						<path id="XMLID_4053_" fill="#01949A" d="M829.9,624.2c-0.4,1.8-1.7,3.1-2.9,2.9c-1.2-0.2-2-1.7-1.6-3.5c0.4-1.9,1.7-3.2,3-3
							C829.6,620.8,830.3,622.4,829.9,624.2z"/>
					</g>
				</g>
			</g>
			<g id="XMLID_4009_">
				<path id="XMLID_4050_" fill="#D5D5D5" d="M1037.8,429l-20.8,12c-4.9,2.8-10.9,2.8-15.8,0l-20.8-12c-2.9-1.7-2.9-5.9,0-7.6
					l26.5-15.3c1.4-0.8,3-0.8,4.4,0l26.5,15.3C1040.8,423.1,1040.8,427.3,1037.8,429z"/>
				<path id="XMLID_4049_" fill="#D5D5D5" d="M1015.8,441.8l-20.8,12c-4.9,2.8-10.9,2.8-15.8,0l-20.8-12c-2.9-1.7-2.9-5.9,0-7.6
					l26.5-15.3c1.4-0.8,3-0.8,4.4,0l26.5,15.3C1018.7,435.8,1018.7,440.1,1015.8,441.8z"/>
				<g id="XMLID_4010_">
					<g id="XMLID_4037_">
						<polygon id="XMLID_4048_" fill="#D5D5D5" points="1035.4,383.1 1007.9,367.3 980.4,383.1 980.4,383.1 980.4,414.9 
							1007.9,430.8 1007.9,399.1 						"/>
						<path id="XMLID_4043_" fill="#383838" d="M1035.9,382.8l-28.1-16.2l-28,16.2h-0.1l0,0v0.6l0,0v31.8l27.5,15.9l0,0l0.6,0.3
							l0.5-0.3l0,0l27.2-15.7l0.3-0.2v-31.8l0,0v-0.6H1035.9z M1007.9,367.9l12.9,7.5l-26.4,15.2l-12.9-7.5L1007.9,367.9z
							 M1007.3,429.8l-26.4-15.2v-30.5l26.4,15.2V429.8z M1019.1,391.9l-11.2,6.5l-12.9-7.5l26.4-15.2l12.9,7.5L1019.1,391.9z"/>
						<path id="XMLID_4039_" fill="#383838" d="M997,399.1l-5.1-2.9c-0.6-0.3-1.1-0.4-1.6-0.1c-0.5,0.3-0.8,1-0.8,1.8
							c0,1.4,0.8,3,1.9,3.6l5.1,2.9c0.3,0.2,0.6,0.3,0.9,0.3c0.3,0,0.5-0.1,0.7-0.2c0.5-0.3,0.8-1,0.8-1.8
							C998.9,401.2,998,399.7,997,399.1z M997.5,403.5c-0.2,0.1-0.4,0-0.5-0.1l-5.1-2.9c-0.7-0.4-1.3-1.6-1.3-2.6
							c0-0.5,0.2-0.8,0.3-0.8c0.2-0.1,0.4,0,0.5,0.1l0.4,0.2c0.1,1.2,0.8,2.4,1.7,3l4.4,2.5C997.7,403.2,997.6,403.4,997.5,403.5z
							 M997.7,402.1l-4-2.3c-0.6-0.4-1.2-1.2-1.4-2.1l4.1,2.4C997,400.4,997.5,401.2,997.7,402.1z"/>
						<path id="XMLID_4038_" fill="#D5D5D5" d="M1031.4,405.6c-0.3-0.2-0.6-0.1-0.9,0l-4.1,2.3c-0.6,0.3-1.1,1.2-1.1,2v4.4
							c0,0.5,0.2,0.8,0.5,1c0.1,0.1,0.2,0.1,0.4,0.1s0.3,0,0.5-0.2l4.1-2.3l0,0c0.6-0.3,1.1-1.2,1.1-2v-4.4
							C1031.9,406.2,1031.7,405.8,1031.4,405.6z"/>
					</g>
					<g id="XMLID_4025_">
						<polygon id="XMLID_4036_" fill="#56D8D8" points="1007.9,399.1 980.4,383.2 952.9,399.1 952.9,399.1 952.9,430.8 980.4,446.7 
							980.4,415 						"/>
						<polygon id="XMLID_4035_" fill="#01949A" points="952.9,431 980.4,446.8 980.4,415.2 952.9,399.2 952.9,399.2 						"/>
						<path id="XMLID_4030_" fill="#383838" d="M1008.4,398.8l-28.1-16.2l-28,16.2h-0.1l0,0v0.6l0,0v31.8l27.5,15.9l0,0l0.6,0.3
							l0.5-0.3l0,0l27.2-15.7l0.3-0.2v-31.8l0,0v-0.6H1008.4z M980.4,383.8l12.9,7.5l-26.4,15.2L954,399L980.4,383.8z M979.8,445.8
							l-26.4-15.2V400l26.4,15.2V445.8z M991.6,407.9l-11.2,6.5l-12.9-7.5l26.4-15.2l12.9,7.5L991.6,407.9z"/>
						<path id="XMLID_4027_" fill="#383838" d="M969.5,415l-5.1-2.9c-0.6-0.3-1.1-0.4-1.6-0.1s-0.8,1-0.8,1.8c0,1.4,0.8,3,1.9,3.6
							l5.1,2.9c0.3,0.2,0.6,0.3,0.9,0.3c0.2,0,0.5-0.1,0.7-0.2c0.5-0.3,0.8-1,0.8-1.8C971.3,417.2,970.5,415.6,969.5,415z
							 M970,419.4c-0.2,0.1-0.4,0-0.5-0.1l-5.1-2.9c-0.7-0.4-1.3-1.6-1.3-2.6c0-0.5,0.2-0.8,0.3-0.8c0.2-0.1,0.4,0,0.5,0.1l0.4,0.2
							c0.1,1.2,0.8,2.4,1.7,3l4.4,2.5C970.2,419.1,970.1,419.3,970,419.4z"/>
						<path id="XMLID_4026_" fill="#56D8D8" d="M1003.9,421.6c-0.3-0.1-0.6-0.1-0.9,0.1l-4,2.3c-0.6,0.3-1.1,1.2-1.1,2v4.4
							c0,0.5,0.2,0.8,0.5,1c0.1,0.1,0.2,0.1,0.4,0.1s0.3,0,0.5-0.2l4.1-2.3l0,0c0.6-0.3,1.1-1.2,1.1-2v-4.4
							C1004.4,422.1,1004.2,421.7,1003.9,421.6z"/>
					</g>
					<g id="XMLID_4013_">
						<polygon id="XMLID_4024_" fill="#F44573" points="1035.4,351 1007.9,335.1 980.4,351 980.4,351 980.4,382.8 1007.9,398.6 
							1007.9,367 						"/>
						<polygon id="XMLID_4023_" fill="#DB1F48" points="980.4,382.8 1007.9,398.6 1007.9,367 980.4,351 980.4,351 						"/>
						<path id="XMLID_4018_" fill="#383838" d="M1035.9,350.7l-28.1-16.2l-28,16.1h-0.1l0,0v0.6l0,0V383l27.5,15.9l0,0l0.6,0.3
							l0.5-0.3l0,0l27.2-15.7l0.3-0.2v-31.8l0,0v-0.5H1035.9z M1007.9,335.7l12.9,7.5l-26.4,15.2l-12.9-7.5L1007.9,335.7z
							 M1007.3,397.7l-26.4-15.2V352l26.4,15.2V397.7z M1019.1,359.8l-11.2,6.5l-12.9-7.5l26.4-15.2l12.9,7.5L1019.1,359.8z"/>
						<path id="XMLID_4015_" fill="#383838" d="M997,366.9l-5.1-2.9c-0.6-0.3-1.1-0.4-1.6-0.1c-0.5,0.3-0.8,1-0.8,1.8
							c0,1.4,0.8,3,1.9,3.6l5.1,2.9c0.3,0.2,0.6,0.3,0.9,0.3c0.2,0,0.5-0.1,0.7-0.2c0.5-0.3,0.8-1,0.8-1.8
							C998.8,369.1,998,367.5,997,366.9z M997.5,371.3c-0.2,0.1-0.4,0-0.5-0.1l-5.1-2.9c-0.7-0.4-1.3-1.6-1.3-2.6
							c0-0.5,0.1-0.8,0.3-0.8c0.2-0.1,0.4,0,0.5,0.1l0.4,0.2c0.1,1.2,0.8,2.4,1.7,3l4.4,2.5C997.7,371,997.6,371.2,997.5,371.3z"/>
						<path id="XMLID_4014_" fill="#D5D5D5" d="M1031.4,373.5c-0.3-0.2-0.6-0.1-0.9,0l-4.1,2.3c-0.6,0.3-1.1,1.2-1.1,2v4.4
							c0,0.5,0.2,0.8,0.5,1c0.1,0.1,0.2,0.1,0.4,0.1s0.3,0,0.5-0.2l4.1-2.3l0,0c0.6-0.3,1.1-1.2,1.1-2v-4.4
							C1031.9,374,1031.7,373.6,1031.4,373.5z"/>
					</g>
					<g id="XMLID_4011_">
						<polygon id="XMLID_4012_" fill="#F44573" points="1008.7,431 1008.2,431.3 1008.2,398.6 1008.3,398.5 1035.9,382.6 
							1035.9,383.2 1008.7,398.9 						"/>
					</g>
				</g>
			</g>
			<g id="XMLID_3371_">
				<path id="XMLID_3544_" fill="#D5D5D5" d="M994.3,581.9l-37.8,21.4c-5.1,2.9-11.3,2.9-16.4-0.1L884.6,571c-2.5-1.4-2.5-5.1,0-6.5
					l46-26.1l63.7,37C996.9,576.8,996.8,580.5,994.3,581.9z"/>
				<g id="_x32__2_">
					<g id="XMLID_3384_">
						<g id="XMLID_3507_">
							<g id="XMLID_3535_">
								<polygon id="XMLID_3543_" fill="#D5D5D5" points="909.9,539.6 909.9,543 970.9,578.1 970.9,574.9 								"/>
								<g id="XMLID_3536_">
									<polygon id="XMLID_3542_" fill="#D5D5D5" points="970.9,574.9 909.9,539.6 917.2,535.4 978.2,570.7 									"/>
									<polygon id="XMLID_3541_" fill="#F2F2F2" points="970.9,574.9 911.1,540.4 917.2,536.8 977.1,571.5 									"/>
									<path id="XMLID_3537_" fill="#383838" d="M978.6,570.9v-0.5l0,0l0,0l-0.4-0.3L917.4,535l-0.2-0.1l-7.3,4.2l0,0l-0.4,0.3
										l0,0v0.5v3.4l61,35.1l0.4,0.3l0,0l0,0l0.4-0.3l7.3-4.2V570.9L978.6,570.9z M977.3,570.7l-1.7,1l-4.6,2.7l-21.7-12.5
										l-38.5-22.2l6.4-3.7L977.3,570.7z M910.3,542.8v-2.3l60.1,34.7v2.3L910.3,542.8z"/>
								</g>
							</g>
							<g id="XMLID_3526_">
								<polygon id="XMLID_3534_" fill="#D5D5D5" points="899.9,545 899.9,548.4 960.9,583.5 960.9,580.2 								"/>
								<g id="XMLID_3527_">
									<polygon id="XMLID_3533_" fill="#D5D5D5" points="960.9,580.2 899.9,545 907.2,540.8 968.2,576 									"/>
									<polygon id="XMLID_3532_" fill="#F2F2F2" points="960.9,580.2 901.1,545.7 907.2,542.2 967.2,576.8 									"/>
									<path id="XMLID_3528_" fill="#383838" d="M968.7,576.3v-0.5l0,0l0,0l-0.4-0.3l-60.8-35.1l-0.2-0.1l-7.3,4.2l0,0l-0.4,0.3
										l0,0v0.5v3.4l61,35.1l0.4,0.3l0,0l0,0l0.4-0.3l7.3-4.2V576.3z M967.3,576l-1.8,1l-4.6,2.7l-21.7-12.5L900.8,545l6.4-3.7
										L967.3,576z M900.4,548.1v-2.3l60.1,34.7v2.3L900.4,548.1z"/>
								</g>
							</g>
							<g id="XMLID_3517_">
								<polygon id="XMLID_3525_" fill="#D5D5D5" points="890,550.8 890,554.1 951,589.3 951,586 								"/>
								<g id="XMLID_3518_">
									<polygon id="XMLID_3524_" fill="#D5D5D5" points="951,586 890,550.8 897.3,546.5 958.3,581.8 									"/>
									<polygon id="XMLID_3523_" fill="#F2F2F2" points="951,586 891.2,551.5 897.3,547.9 957.2,582.6 									"/>
									<path id="XMLID_3519_" fill="#383838" d="M958.7,582v-0.5l0,0l0,0l-0.4-0.3l-60.8-35.1l-0.2-0.1l-7.3,4.2l0,0l-0.4,0.3l0,0
										v0.5v3.4l61,35.1l0.4,0.3l0,0l0,0l0.4-0.3l7.3-4.2V582z M957.4,581.8l-1.8,1l-4.6,2.7L929.3,573l-38.4-22.2l6.4-3.7
										L957.4,581.8z M890.4,553.9v-2.4l60.1,34.7v2.2L890.4,553.9z"/>
								</g>
							</g>
							<g id="XMLID_3508_">
								<polygon id="XMLID_3516_" fill="#D5D5D5" points="880,556.5 880,559.9 941,595 941,591.8 								"/>
								<g id="XMLID_3509_">
									<polygon id="XMLID_3515_" fill="#D5D5D5" points="941,591.8 880,556.5 887.3,552.3 948.3,587.5 									"/>
									<polygon id="XMLID_3514_" fill="#F2F2F2" points="941,591.8 881.2,557.2 887.3,553.7 947.2,588.3 									"/>
									<path id="XMLID_3510_" fill="#383838" d="M948.8,587.8v-0.5l0,0l0,0l-0.4-0.3l-60.8-35.1l-0.2-0.1L880,556l0,0l-0.4,0.3
										l0,0v0.5v3.4l61,35.1l0.4,0.3l0,0l0,0l0.4-0.3l7.3-4.2L948.8,587.8L948.8,587.8z M947.4,587.5l-1.8,1l-4.6,2.7l-21.7-12.5
										l-38.4-22.2l6.4-3.7L947.4,587.5z M880.4,559.7v-2.3l60.1,34.7v2.2L880.4,559.7z"/>
								</g>
							</g>
						</g>
						<g id="XMLID_3398_">
							<g id="XMLID_3498_">
								<polygon id="XMLID_3506_" fill="#D5D5D5" points="909.9,529 909.9,532.4 970.9,567.5 970.9,564.2 								"/>
								<g id="XMLID_3499_">
									<polygon id="XMLID_3505_" fill="#D5D5D5" points="970.9,564.2 909.9,529 917.2,524.8 978.2,560 									"/>
									<polygon id="XMLID_3504_" fill="#F2F2F2" points="970.9,564.2 911.1,529.7 917.2,526.2 977.1,560.8 									"/>
									<path id="XMLID_3500_" fill="#383838" d="M978.6,560.3v-0.5l0,0l0,0l-0.4-0.3l-60.8-35.1l-0.2-0.1l-7.3,4.2l0,0l-0.4,0.3
										l0,0v0.5v3.4l61,35.1l0.4,0.3l0,0l0,0l0.4-0.3l7.3-4.2V560.3z M977.3,560l-1.7,1l-4.6,2.7l-21.7-12.5L910.8,529l6.4-3.7
										L977.3,560z M910.3,532.1v-2.3l60.1,34.7v2.2L910.3,532.1z"/>
								</g>
							</g>
							<g id="XMLID_3482_">
								<polygon id="XMLID_3497_" fill="#D5D5D5" points="899.9,534.4 899.9,537.7 960.9,572.9 960.9,569.6 								"/>
								<g id="XMLID_3483_">
									<polygon id="XMLID_3496_" fill="#D5D5D5" points="960.9,569.6 899.9,534.4 907.2,530.1 968.2,565.4 									"/>
									<polygon id="XMLID_3495_" fill="#F2F2F2" points="960.9,569.6 901.1,535.1 907.2,531.5 967.2,566.2 									"/>
									<path id="XMLID_3491_" fill="#383838" d="M968.7,565.6v-0.5l0,0l0,0l-0.4-0.3l-60.8-35.1l-0.2-0.1l-7.3,4.2l0,0l-0.4,0.3
										l0,0v0.5v3.4l61,35.1l0.4,0.3l0,0l0,0l0.4-0.3l7.3-4.2V565.6z M967.3,565.4l-1.8,1l-4.6,2.7l-21.7-12.5l-38.4-22.2l6.4-3.7
										L967.3,565.4z M900.4,537.5v-2.3l60.1,34.7v2.2L900.4,537.5z"/>
								</g>
							</g>
							<g id="XMLID_3431_">
								<polygon id="XMLID_3481_" fill="#D5D5D5" points="890,540.1 890,543.5 951,578.6 951,575.3 								"/>
								<g id="XMLID_3432_">
									<polygon id="XMLID_3473_" fill="#D5D5D5" points="951,575.3 890,540.1 897.3,535.9 958.3,571.1 									"/>
									<polygon id="XMLID_3472_" fill="#F2F2F2" points="951,575.3 891.2,540.8 897.3,537.3 957.2,571.9 									"/>
									<path id="XMLID_3445_" fill="#383838" d="M958.7,571.4v-0.5l0,0l0,0l-0.4-0.3l-60.8-35.1l-0.2-0.1l-7.3,4.2l0,0l-0.4,0.3
										l0,0v0.5v3.4l61,35.1l0.4,0.3l0,0l0,0l0.4-0.3l7.3-4.2V571.4z M957.4,571.1l-1.8,1l-4.6,2.7l-21.7-12.5l-38.4-22.2l6.4-3.7
										L957.4,571.1z M890.4,543.2v-2.3l60.1,34.7v2.2L890.4,543.2z"/>
								</g>
							</g>
							<g id="XMLID_3399_">
								<polygon id="XMLID_3430_" fill="#D5D5D5" points="880,545.9 880,549.3 941,584.4 941,581.1 								"/>
								<g id="XMLID_3400_">
									<polygon id="XMLID_3429_" fill="#D5D5D5" points="941,581.1 880,545.9 887.3,541.7 948.3,576.9 									"/>
									<polygon id="XMLID_3418_" fill="#F2F2F2" points="941,581.1 881.2,546.6 887.3,543.1 947.2,577.7 									"/>
									<path id="XMLID_3401_" fill="#383838" d="M948.8,577.2v-0.5l0,0l0,0l-0.4-0.3l-60.8-35.1l-0.2-0.1l-7.3,4.2l0,0l-0.4,0.3
										l0,0v0.5v3.4l61,35.1l0.4,0.3l0,0l0,0l0.4-0.3l7.3-4.2V577.2z M947.4,576.9l-1.8,1l-4.6,2.7l-21.7-12.5l-38.4-22.2l6.4-3.7
										L947.4,576.9z M880.4,549v-2.3l60.1,34.7v2.3L880.4,549z"/>
								</g>
							</g>
						</g>
						<g id="XMLID_3385_">
							<polygon id="XMLID_3397_" fill="#D5D5D5" points="924.5,582.3 924.5,574.9 933.7,580.2 933.7,587.6 							"/>
							<path id="XMLID_3394_" fill="#383838" d="M940.1,583.9l-5.9-3.4V580l-10.1-5.9v8.4l10.1,5.8v-1L940.1,583.9z M933.3,586.8
								L925,582v-6.4l8.3,4.8V586.8z"/>
							<polygon id="XMLID_3393_" fill="#D5D5D5" points="886.5,560.2 886.5,553 895.7,558.4 895.7,565.6 							"/>
							<path id="XMLID_3390_" fill="#383838" d="M902.1,561.9l-5.9-3.4v-0.4l-10.1-5.9v8.2l10.1,5.9v-1L902.1,561.9z M895.3,564.8
								l-8.3-4.9v-6.2l8.3,4.9V564.8z"/>
							<polygon id="XMLID_3389_" fill="#D5D5D5" points="905,570.9 905,563.7 914.3,569.1 914.3,576.3 							"/>
							<path id="XMLID_3386_" fill="#383838" d="M920.6,572.6l-5.9-3.4v-0.4l-10.1-5.9v8.2l10.1,5.9v-1L920.6,572.6z M913.8,575.5
								l-8.3-4.9v-6.2l8.3,4.9V575.5z"/>
						</g>
					</g>
					<g id="XMLID_3372_">
						<polygon id="XMLID_3383_" fill="#F44573" points="955,521.4 927.5,505.5 900,521.4 900,521.4 900,553.2 927.5,569.1 
							927.5,537.4 						"/>
						<polygon id="XMLID_3382_" fill="#DB1F48" points="900,553.1 927.5,569 927.5,537.3 900,521.3 900,521.3 						"/>
						<path id="XMLID_3377_" fill="#383838" d="M955.6,521.1l-28.1-16.2l-28,16.2h-0.1l0,0v0.6l0,0v31.8l27.5,15.9l0,0l0.5,0.3
							l0.6-0.3l0,0l27.2-15.7l0.3-0.2v-31.8l0,0L955.6,521.1L955.6,521.1z M927.5,506.2l12.9,7.5L914,528.9l-12.9-7.5L927.5,506.2z
							 M927,568.1l-26.4-15.2v-30.5l26.4,15.2V568.1z M938.7,530.2l-11.2,6.5l-12.9-7.5L941,514l12.9,7.5L938.7,530.2z"/>
						<path id="XMLID_3374_" fill="#383838" d="M916.6,537.3l-5.1-2.9c-0.6-0.3-1.1-0.4-1.6-0.1s-0.8,1-0.8,1.8c0,1.4,0.8,3,1.9,3.6
							l5.1,2.9c0.3,0.2,0.6,0.3,0.9,0.3c0.2,0,0.5-0.1,0.7-0.2c0.5-0.3,0.8-1,0.8-1.8C918.5,539.5,917.7,538,916.6,537.3z
							 M917.1,541.7c-0.1,0.1-0.4,0-0.5-0.1l-5.1-2.9c-0.7-0.4-1.3-1.6-1.3-2.6c0-0.5,0.1-0.8,0.3-0.8c0.2-0.1,0.4,0,0.5,0.1
							l0.4,0.2c0.1,1.2,0.8,2.4,1.7,3l4.3,2.5C917.4,541.4,917.2,541.7,917.1,541.7z"/>
						<path id="XMLID_3373_" fill="#F44573" d="M951.1,543.9c-0.3-0.2-0.6-0.1-0.9,0l-4.1,2.3c-0.6,0.3-1.1,1.2-1.1,2v4.4
							c0,0.5,0.2,0.8,0.5,1c0.1,0.1,0.2,0.1,0.4,0.1c0.2,0,0.3-0.1,0.5-0.2l4.1-2.3l0,0c0.6-0.4,1.1-1.2,1.1-2v-4.4
							C951.5,544.4,951.4,544.1,951.1,543.9z"/>
					</g>
				</g>
			</g>
			<g id="XMLID_3207_">
				<path id="XMLID_3370_" fill="#D5D5D5" d="M902.4,473.1L738,568.2c-4.1,2.4-9.2,2.4-13.4,0l-76-43.9c-3.2-1.8-3.2-6.4,0-8.2
					l168.7-97.6c1.5-0.8,3.3-0.8,4.7,0l80.4,46.4C905.5,466.7,905.5,471.3,902.4,473.1z"/>
				<g id="XMLID_3208_">
					<g id="XMLID_3225_">
						<g id="XMLID_3226_">
							<polygon id="XMLID_3369_" fill="#D5D5D5" points="720.6,551 643.3,506.4 643.3,421.2 720.6,465.8 							"/>
							<polygon id="XMLID_3368_" fill="#D5D5D5" points="794.5,333.8 643.2,421.1 720.6,465.7 871.8,378.4 							"/>
							<path id="XMLID_3363_" fill="#383838" d="M643.2,420.6l-0.5,0.4v84.5v1.2v6l10.4,6l4.9-3.1l50.2,29l2.2,7.3l9.6,5.5l1-0.1
								V552v-1.2v-85.2l-76.9-44.4L643.2,420.6z M652.7,517.2l-8.9-5.1v-4.8l2.4,1.4l8.3,4.8L652.7,517.2z M720.1,556.1l-8.7-5
								l-1.8-5.9l10.5,6.1V556.1z M720.1,550.1l-0.6-0.4l-14.5-8.3v-2.9l-9.9-5.7v2.9l-26.2-15.2v-2.9l-9.9-5.7v2.9l-15.1-8.7v-84
								l76.3,44.1v83.9H720.1z"/>
							<path id="XMLID_3347_" fill="#F2F2F2" d="M794.4,336.2L645,422.5l76.4,44l149.4-86.3L794.4,336.2z M720.6,458.8l-66.2-37.4
								l140.1-80.9l65.9,38.1L720.6,458.8z"/>
							<path id="XMLID_3344_" fill="#383838" d="M871.8,377.8l-151.5,87.5l-0.3,0.1v85.2v1.2v5.5l0.4,0.2l10.2-5.9l2.2-7.3
								l124.3-71.8l4.8,3.2l10.4-6v-6v-1.2v-84.6L871.8,377.8z M861,473.8l-2.8-1.7l1.5-0.9l0.1,0.2L861,473.8z"/>
							<path id="XMLID_3295_" fill="#D5D5D5" d="M728.3,467.7l-0.3,0.1v72.1l7.7-4.4l0.3-0.1l0,0l5.2-3l0.2-0.1l0,0l6.6-3.8l0.4-0.2
								l0,0l5.4-3.1l0,0l6.5-3.8l0.4-0.2l0,0l5.4-3.2l0,0l6.5-3.7l0.5-0.2l0,0l5.4-3.2l0,0l6.4-3.7l0.5-0.2l0,0l5.4-3.2l0,0l6.6-3.8
								l0.4-0.2l0,0l0.6-0.3l4.8-2.7v-0.1l6.5-3.7l0.5-0.2l0,0l5.4-3.2l0,0l6.4-3.7l0.5-0.2l0,0l5.4-3.2l0,0l6.4-3.7l0.6-0.2l0,0
								l5.4-3.3l0,0l6.3-3.6l0.6-0.2l0,0l5.4-3.3l0,0l6.9-4h0.1V464l5.2-3l0.3-0.1v-0.1v-71v-1L728.3,467.7z M798.1,498.5
								L798.1,498.5l-0.1-69.7l4.4-2.5V496L798.1,498.5z M736,464.4l4.4-2.5v69.7l-4.4,2.5V464.4z M741.4,461.3l6-3.4v69.5h-6V461.3
								z M748.4,527v-69.7l4.4-2.5v69.7L748.4,527z M753.8,454.2l6-3.4v69.5h-6V454.2L753.8,454.2z M760.8,519.9v-69.7l4.4-2.5v69.7
								L760.8,519.9z M766.2,447.1l6-3.5v69.6h-6V447.1L766.2,447.1z M773.3,512.8V443l4.4-2.5v69.7L773.3,512.8z M778.6,440
								l6.1-3.5v69.6h-6V440H778.6z M785.7,505.6v-69.7l4.4-2.5v69.7L785.7,505.6z M790.9,432.9l6.1-3.5v69.5h-6L790.9,432.9
								L790.9,432.9z M803.5,425.6l6-3.4v69.6h-6V425.6z M810.5,491.3v-69.7l4.4-2.5v69.7L810.5,491.3z M815.8,418.6l6.1-3.5v69.6
								h-6v-66.1H815.8z M822.9,484.2v-69.7l4.4-2.5v69.7L822.9,484.2z M828.3,411.4l6-3.4v69.6h-6V411.4z M835.3,477.1v-69.7
								l4.4-2.5v69.7L835.3,477.1z M840.8,404.2l6-3.4v69.7h-6V404.2z M847.7,469.9v-69.7l4.4-2.5v69.7L847.7,469.9z M853.2,397.1
								l6-3.4V463h-6V397.1z M860.2,462.7v-69.6l4.4-2.5v69.6L860.2,462.7z M735,465v69.4h-6v-66.1L735,465z"/>
							<g id="XMLID_3278_">
								<polygon id="XMLID_3294_" fill="#F2F2F2" points="673.3,411.3 677.8,408.7 742,445.3 737.5,447.9 								"/>
								<polygon id="XMLID_3293_" fill="#F2F2F2" points="662.1,417.9 666.6,415.3 730.8,451.9 726.3,454.5 								"/>
								<polygon id="XMLID_3292_" fill="#F2F2F2" points="685,404.6 689.5,402 753.7,438.7 749.2,441.2 								"/>
								<polygon id="XMLID_3291_" fill="#F2F2F2" points="696.5,397.8 701,395.2 765.1,431.8 760.7,434.4 								"/>
								<polygon id="XMLID_3290_" fill="#F2F2F2" points="707.7,391.1 712.2,388.5 776.4,425.1 771.9,427.7 								"/>
								<polygon id="XMLID_3289_" fill="#F2F2F2" points="719.5,384.4 724,381.8 788.1,418.4 783.7,421 								"/>
								<polygon id="XMLID_3288_" fill="#F2F2F2" points="730.9,377.6 735.4,375 799.6,411.6 795.1,414.2 								"/>
								<polygon id="XMLID_3287_" fill="#F2F2F2" points="742.7,371.1 747.2,368.5 811.4,405.1 806.9,407.7 								"/>
								<polygon id="XMLID_3286_" fill="#F2F2F2" points="754.2,364.2 758.7,361.6 822.9,398.2 818.4,400.8 								"/>
								<polygon id="XMLID_3285_" fill="#F2F2F2" points="766.2,357.5 770.7,354.9 834.8,391.6 830.4,394.1 								"/>
								<polygon id="XMLID_3280_" fill="#F2F2F2" points="777.9,350.9 782.4,348.3 846.6,384.9 842.1,387.5 								"/>
								<polygon id="XMLID_3279_" fill="#F2F2F2" points="789.4,344 793.9,341.4 858,378 853.6,380.6 								"/>
							</g>
							<path id="XMLID_3275_" fill="#383838" d="M720.6,466.3l-0.3-0.2l-77.5-44.8l0.5-0.8l151.2-87.4l0.3,0.1l77.6,44.8v0.6
								L720.6,466.3z M644.3,421.1l76.3,44.1l150.2-86.7l-76.3-44.1L644.3,421.1z"/>
							<path id="XMLID_3249_" fill="#383838" d="M860.4,378.5l-0.8-0.4l0,0l0,0l-65.2-37.6l-0.3-0.2l-23.4,13.6h-0.1l-6.5,3.8
								l0.1,0.1l-5.1,3l-0.2-0.1l-6.5,3.8l0.2,0.1l-5.1,3l-0.2-0.1l-6.5,3.8l0.2,0.1l-28.2,16.4l0,0l-6.5,3.8l0,0l-51.9,30.1
								l65.2,37.1l0.9,0.5l0,0l0.3,0.1L860.4,378.5z M659.4,423l3.2-4.7l62.9,36.9l-4.8,2.8L659.4,423z M712.8,388.7l64.3,36.7
								l-4.5,2.6l-64.4-36.7L712.8,388.7z M747.5,368.5l64.4,36.8l-4.5,2.6L743,371.1L747.5,368.5z M751.1,369.3l2.5-4.4l0,0
								l64.5,36.8l-5.2,3l-0.1-0.1v-0.1L751.1,369.3z M759.2,361.8l64.4,36.8l-4.5,2.6l-64.5-36.8L759.2,361.8z M762.9,362.6
								l2.5-4.4l64.4,36.7l-5.2,3l0,0v-0.1L762.9,362.6z M770.8,355l64.5,36.8l-4.5,2.6l-64.5-36.8L770.8,355z M846.9,385.1
								l-4.5,2.6L778,350.9l4.5-2.6L846.9,385.1z M786.4,349.3l2.5-4.4l64.1,36.6l-5.1,2.9L786.4,349.3z M789.7,344.3l4.5-2.6
								l64.1,36.8L854,381L789.7,344.3z M841.4,388.3l-5.1,2.9L774.6,356l2.5-4.4L841.4,388.3z M788.8,418.7l-4.5,2.6L720,384.5
								l4.5-2.6L788.8,418.7z M728.4,383l2.5-4.4l64,36.5l-5.1,2.9L728.4,383z M731.8,377.9l4.5-2.6l1.9,1.1v0.1l62.2,35.5l-4.4,2.5
								L731.8,377.9z M739.6,376l2.5-4.3l64.4,36.7l-5,2.9L739.6,376z M783.3,421.8l-5.1,2.9l-61.6-35.2l2.5-4.4L783.3,421.8z
								 M669.4,416.9l61.2,35.3l-4.2,2.4l-63.1-37l3.6-2.1L669.4,416.9z M670.5,416.3l2.3-4.2l64,36.5l-4.8,2.8L670.5,416.3z
								 M673.6,411.5l4.5-2.6l64.2,36.6l-4.5,2.6L673.6,411.5z M682,409.9l2.5-4.4l63.9,36.4l-5.1,2.9L682,409.9z M685.4,404.8
								l4.5-2.6l64.1,36.5l-4.5,2.6L685.4,404.8z M693.4,403l2.5-4.4l64.2,36.6l-5.1,2.9L693.4,403z M696.8,397.9l4.5-2.6l2.3,1.3
								l0,0l62,35.4l-4.4,2.6L696.8,397.9z M704.9,396.3l2.5-4.3l64.2,36.6l-5,2.9L704.9,396.3z"/>
							<g id="XMLID_3235_">
								<path id="XMLID_3247_" fill="#F2F2F2" d="M800,474.6c-1.1,0.7-2,1.7-2.6,3c-0.6,1.3-0.9,2.9-0.9,4.7c0,3.7,1.2,4.8,3.6,3.4
									c1-0.6,2.2-1.6,3.6-3v2.9c-1.2,1.2-2.5,2.3-3.9,3.1c-2.1,1.2-3.7,1.4-4.8,0.6s-1.6-2.6-1.6-5.3c0-1.7,0.3-3.4,0.8-5
									s1.3-3,2.3-4.3s2.2-2.3,3.5-3.1c1.4-0.8,2.8-1.2,4.2-1.2l-1,3.4c-0.5,0-1.1,0.1-1.6,0.2S800.5,474.3,800,474.6z"/>
								<path id="XMLID_3244_" fill="#F2F2F2" d="M815.4,479.5l-1-3.3l-5.2,3l-1,4.5l-3.3,1.9l5-19.4l3.7-2.1l5,13.6L815.4,479.5z
									 M813.7,473.7c-1-3-1.5-4.7-1.6-5.1c-0.1-0.4-0.2-0.7-0.3-1c-0.2,1.1-0.8,3.8-1.8,8.2L813.7,473.7z"/>
								<path id="XMLID_3241_" fill="#F2F2F2" d="M823.5,468.5v6.3l-3,1.7V460l4.2-2.4c1.9-1.1,3.4-1.5,4.3-1.3
									c0.9,0.3,1.4,1.2,1.4,2.9c0,1-0.2,2-0.7,3s-1.1,2-2,2.9c2.1,2.5,3.5,4,4.2,4.8l-3.3,1.9l-3.4-4.3L823.5,468.5z M823.5,465.7
									l1-0.6c1-0.6,1.7-1.1,2.1-1.8c0.5-0.6,0.7-1.3,0.7-2.1s-0.2-1.2-0.7-1.3c-0.5-0.1-1.2,0.2-2.2,0.8l-0.9,0.5V465.7z"/>
								<path id="XMLID_3239_" fill="#F2F2F2" d="M839,456.6l5.7-3.3v8.5c-0.9,0.9-1.8,1.6-2.6,2.2c-0.8,0.6-1.6,1.2-2.5,1.6
									c-2.1,1.2-3.8,1.5-4.9,0.7c-1.1-0.8-1.7-2.6-1.7-5.3s0.7-5.1,2-7.3s3.1-4,5.5-5.4c1.5-0.8,2.9-1.3,4.2-1.4l-1,3.4
									c-1,0-2.1,0.3-3.3,1c-1.3,0.8-2.3,1.9-3.1,3.3c-0.8,1.5-1.2,3.1-1.2,4.8c0,1.8,0.3,3,1,3.5c0.6,0.6,1.6,0.5,2.8-0.2
									c0.6-0.4,1.3-0.8,1.9-1.3V458l-2.7,1.6L839,456.6L839,456.6z"/>
								<path id="XMLID_3236_" fill="#F2F2F2" d="M861,444.9c0,2.7-0.6,5.2-1.8,7.3c-1.2,2.1-2.8,3.8-5,5.1s-3.9,1.5-5,0.7
									c-1.2-0.8-1.8-2.5-1.8-5.3c0-2.7,0.6-5.2,1.8-7.3c1.2-2.1,2.9-3.8,5-5.1c2.2-1.3,3.9-1.5,5-0.7
									C860.4,440.4,861,442.2,861,444.9z M850.6,450.9c0,1.8,0.3,3,0.9,3.6s1.5,0.5,2.7-0.2c2.4-1.4,3.6-3.9,3.6-7.6
									s-1.2-4.9-3.6-3.5c-1.2,0.7-2.1,1.7-2.7,3S850.6,449.1,850.6,450.9z"/>
							</g>
							<g id="XMLID_3231_">
								<path id="XMLID_3232_" fill="#383838" d="M715.5,542l-67.2-38.8v-73.5l67.2,38.8V542z M649.6,502.4l64.7,37.4v-70.6
									l-64.7-37.3V502.4z"/>
							</g>
							<g id="XMLID_3229_">
								
									<rect id="XMLID_3230_" x="680.2" y="449.6" transform="matrix(-1 -4.507916e-03 4.507916e-03 -1 1359.5178 974.2753)" fill="#383838" width="1.3" height="72"/>
							</g>
							<path id="XMLID_3228_" fill="#383838" d="M667.1,484.4l-0.1-0.1c0.3,0.5,0.6,1.1,0.6,1.6c0,0.9-0.7,1.3-1.5,0.8l-3.3-1.9
								c-0.8-0.5-1.4-1.6-1.4-2.5c0-0.5,0.2-0.9,0.6-1l-0.1-0.1c-1.3-0.7-2.3-0.1-2.3,1.3c0,1.5,1,3.3,2.3,4l5.3,3.1
								c1.3,0.7,2.3,0.1,2.3-1.3C669.4,486.9,668.3,485.1,667.1,484.4z"/>
							<path id="XMLID_3227_" fill="#383838" d="M701,504L701,504c0.2,0.4,0.5,1,0.5,1.5c0,0.9-0.7,1.3-1.5,0.8l-3.3-1.9
								c-0.8-0.5-1.4-1.6-1.4-2.5c0-0.5,0.2-0.9,0.6-1l-0.1-0.1c-1.3-0.7-2.3-0.1-2.3,1.3c0,1.5,1,3.3,2.3,4l5.3,3.1
								c1.3,0.7,2.3,0.1,2.3-1.3C703.3,506.5,702.3,504.7,701,504z"/>
						</g>
					</g>
					<g id="XMLID_3209_">
						<polygon id="XMLID_3224_" fill="#DB1F48" points="761.3,382.4 761.3,376.9 787.3,392.1 786.8,397.2 						"/>
						<g id="XMLID_3210_">
							<polygon id="XMLID_3223_" fill="#DB1F48" points="812.3,376.9 786.8,391.6 761.3,376.9 786.8,362.2 							"/>
							<polygon id="XMLID_3222_" fill="#DB1F48" points="803.7,376.9 786.8,386.7 769.8,376.9 786.8,367.1 							"/>
							<path id="XMLID_3219_" fill="#F44573" d="M786.8,364l-24,13.8l25.3,14.8l24.1-13.9L786.8,364z M786.8,386.7l-14.5-8.9
								l14.5-10.3l16.7,9.3L786.8,386.7z"/>
							<path id="XMLID_3215_" fill="#383838" d="M812.8,376.6L812.8,376.6l-0.5-0.3l-25.5-14.7l-25.5,14.7l0,0l-0.5,0.3l0,0v0.6v5.6
								l25.5,14.7l0.5,0.3l0,0l0,0l0.5-0.3l25.5-14.6v-5.8V376.6L812.8,376.6z M786.3,396.4l-24.5-14.2v-4.5l24.5,14.1V396.4z
								 M786.8,391l-24.5-14.1l24.5-14.1l24.5,14.1L786.8,391z"/>
							<path id="XMLID_3211_" fill="#383838" d="M804,377.3l0.8-0.4l-17.4-10.1l-0.5-0.3l-18,10.4l18,10.4l15.5-8.9L804,377.3
								L804,377.3z M787.3,368l15.4,8.9l-2.6,1.5l-12.8-7.2V368z M774.5,379l12.3-6.9L799,379l-12.2,7.1L774.5,379z"/>
						</g>
					</g>
				</g>
			</g>
			<g id="XMLID_3204_">
				<path id="XMLID_3206_" fill="#D5D5D5" d="M700.5,592.2l-164.4,95.1c-4.1,2.4-9.2,2.4-13.4,0l-76-43.9c-3.2-1.8-3.2-6.4,0-8.2
					l168.7-97.6c1.5-0.8,3.3-0.8,4.8,0l80.4,46.4C703.7,585.8,703.7,590.3,700.5,592.2z"/>
				<g id="XMLID_3205_">
					<g id="XMLID_8697_">
						<g id="XMLID_8813_">
							<polygon id="XMLID_9313_" fill="#D5D5D5" points="517.1,668.3 439.8,623.7 439.8,538.5 517.1,583.1 							"/>
							<polygon id="XMLID_9312_" fill="#D5D5D5" points="591,451 439.8,538.4 517.1,583 668.4,495.7 							"/>
							<path id="XMLID_9307_" fill="#383838" d="M439.8,537.8l-0.5,0.4v84.5v1.2v6l10.4,6l4.9-3.1l50.2,29l2.2,7.3l9.6,5.5l1-0.1
								v-5.3V668v-85.2l-76.9-44.4L439.8,537.8z M449.2,634.5l-8.9-5.1v-4.8l2.3,1.4l8.3,4.8L449.2,634.5z M516.6,673.4l-8.7-5
								l-1.8-5.9l10.5,6.1V673.4z M516.6,667.4L516,667l-14.5-8.3v-2.9l-9.9-5.7v2.9l-26.2-15.2v-2.9l-9.9-5.7v2.9l-15.1-8.7v-84
								l76.3,44.1v83.9H516.6z"/>
							<path id="XMLID_9304_" fill="#F2F2F2" d="M591,453.5l-149.4,86.3l76.4,44l149.4-86.3L591,453.5z M517.1,576.1l-66.2-37.4
								l140.1-81l65.9,38.1L517.1,576.1z"/>
							<path id="XMLID_9301_" fill="#383838" d="M668.4,495.1l-151.5,87.5l-0.3,0.1v85.2v1.2v5.5l0.4,0.2l10.2-5.9l2.2-7.3
								l124.3-71.8l4.8,3.2l10.4-6v-6v-1v-84.6L668.4,495.1z M657.5,591l-2.8-1.7l1.5-0.9l0.1,0.2L657.5,591z"/>
							<path id="XMLID_9277_" fill="#D5D5D5" d="M524.8,585l-0.3,0.2v72.1l7.7-4.5l0.3-0.1l0,0l5.2-3l0.2-0.1l0,0l6.6-3.8l0.4-0.2
								l0,0l5.4-3.1l0,0l6.5-3.8l0.4-0.2l0,0l5.4-3.2l0,0l6.5-3.7l0.5-0.2l0,0l5.4-3.2l0,0l6.4-3.7l0.5-0.2l0,0l5.4-3.2l0,0l6.6-3.8
								l0.4-0.2l0,0l0.6-0.3l4.8-2.7V614l6.5-3.7l0.5-0.2l0,0l5.4-3.2l0,0l6.4-3.7l0.5-0.2l0,0l5.4-3.2l0,0l6.4-3.7l0.6-0.2l0,0
								l5.4-3.3l0,0l6.3-3.6l0.6-0.2l0,0l5.4-3.3l0,0l6.9-4h0.1v-0.1l5.2-3l0.3-0.1V578v-71v-1L524.8,585z M594.7,615.7L594.7,615.7
								V546l4.4-2.5v69.7L594.7,615.7z M532.6,581.7l4.4-2.5v69.7l-4.4,2.5V581.7z M538,578.6l6-3.4v69.5h-6V578.6z M545,644.3
								v-69.7l4.4-2.5v69.7L545,644.3z M550.4,571.5l6-3.4v69.5h-6V571.5L550.4,571.5z M557.4,637.1v-69.7l4.4-2.5v69.7L557.4,637.1
								z M562.8,564.4l6-3.5v69.6h-6V564.4L562.8,564.4z M569.8,630v-69.7l4.4-2.5v69.7L569.8,630z M575.1,557.3l6.1-3.5v69.6h-6
								v-66.1H575.1z M582.2,622.9v-69.7l4.4-2.5v69.7L582.2,622.9z M587.5,550.1l6.1-3.5v69.5h-6L587.5,550.1L587.5,550.1z
								 M600.1,542.9l6-3.4v69.6h-6V542.9z M607.1,608.6v-69.7l4.4-2.5v69.7L607.1,608.6z M612.4,535.8l6.1-3.5v69.6h-6L612.4,535.8
								L612.4,535.8z M619.5,601.5v-69.7l4.4-2.5V599L619.5,601.5z M624.9,528.6l6-3.4v69.6h-6V528.6z M631.9,594.3v-69.7l4.4-2.5
								v69.7L631.9,594.3z M637.3,521.5l6-3.4v69.7h-6V521.5z M644.3,587.2v-69.7l4.4-2.5v69.7L644.3,587.2z M649.7,514.4l6-3.4
								v69.3h-6V514.4z M656.7,579.9v-69.6l4.4-2.5v69.6L656.7,579.9z M531.6,582.3v69.4h-6v-66.1L531.6,582.3z"/>
							<g id="XMLID_8922_">
								<polygon id="XMLID_9276_" fill="#F2F2F2" points="469.9,528.6 474.3,526 538.5,562.6 534,565.2 								"/>
								<polygon id="XMLID_9275_" fill="#F2F2F2" points="458.7,535.2 463.2,532.6 527.3,569.2 522.9,571.8 								"/>
								<polygon id="XMLID_9274_" fill="#F2F2F2" points="481.6,521.9 486.1,519.3 550.2,555.9 545.8,558.5 								"/>
								<polygon id="XMLID_9273_" fill="#F2F2F2" points="493,515 497.5,512.4 561.7,549.1 557.2,551.6 								"/>
								<polygon id="XMLID_9272_" fill="#F2F2F2" points="504.3,508.4 508.8,505.8 573,542.4 568.5,545 								"/>
								<polygon id="XMLID_9271_" fill="#F2F2F2" points="516,501.7 520.5,499.1 584.7,535.7 580.2,538.3 								"/>
								<polygon id="XMLID_9270_" fill="#F2F2F2" points="527.5,494.8 532,492.2 596.2,528.8 591.7,531.4 								"/>
								<polygon id="XMLID_9269_" fill="#F2F2F2" points="539.3,488.3 543.8,485.7 607.9,522.4 603.5,525 								"/>
								<polygon id="XMLID_9268_" fill="#F2F2F2" points="550.8,481.5 555.3,478.9 619.4,515.5 615,518.1 								"/>
								<polygon id="XMLID_9267_" fill="#F2F2F2" points="562.8,474.8 567.2,472.2 631.4,508.8 626.9,511.4 								"/>
								<polygon id="XMLID_9266_" fill="#F2F2F2" points="574.5,468.1 579,465.5 643.1,502.1 638.7,504.7 								"/>
								<polygon id="XMLID_8939_" fill="#F2F2F2" points="585.9,461.2 590.4,458.7 654.6,495.3 650.1,497.9 								"/>
							</g>
							<path id="XMLID_8904_" fill="#383838" d="M517.1,583.6l-0.3-0.2l-77.5-44.8l0.5-0.8L591,450.4l0.3,0.1l77.6,44.8v0.6
								L517.1,583.6z M440.8,538.4l76.3,44.1l150.2-86.7L591,451.6L440.8,538.4z"/>
							<path id="XMLID_8830_" fill="#383838" d="M656.9,495.8l-0.8-0.4l0,0l0,0L591,457.7l-0.3-0.2L567.3,471h-0.1l-6.5,3.8l0.1,0.1
								l-5.1,3l-0.2-0.1l-6.5,3.8l0.2,0.1l-5.1,3l-0.2-0.1l-6.5,3.8l0.2,0.1l-28.2,16.4l0,0l-6.5,3.8l0,0L451,538.8l65.2,37.1
								l0.9,0.5l0,0l0.3,0.1L656.9,495.8z M455.9,540.2l3.2-4.7l62.9,36.9l-4.8,2.7L455.9,540.2z M509.3,505.9l64.3,36.7l-4.5,2.6
								l-64.3-36.7L509.3,505.9z M544.1,485.8l64.4,36.8l-4.5,2.6l-64.4-36.8L544.1,485.8z M547.7,486.6l2.5-4.3l0,0l64.5,36.8
								l-5.2,3l-0.1-0.1v-0.1L547.7,486.6z M555.7,479l64.4,36.8l-4.5,2.6l-64.5-36.8L555.7,479z M559.4,479.9l2.5-4.4l64.4,36.7
								l-5.2,3l0,0v-0.1L559.4,479.9z M567.4,472.3l64.5,36.8l-4.5,2.6l-64.5-36.8L567.4,472.3z M643.5,502.4L639,505l-64.5-36.8
								l4.5-2.6L643.5,502.4z M582.9,466.6l2.5-4.4l64.2,36.6l-5.1,2.9L582.9,466.6z M586.3,461.5l4.5-2.6l64.1,36.8l-4.3,2.5
								L586.3,461.5z M638,505.5l-5.1,2.9l-61.7-35.2l2.5-4.4L638,505.5z M585.4,535.9l-4.5,2.6l-64.3-36.7l4.5-2.6L585.4,535.9z
								 M525,500.2l2.5-4.4l64,36.5l-5.1,2.9L525,500.2z M528.3,495.2l4.5-2.6l1.9,1.1v0.1l62.2,35.5l-4.4,2.5L528.3,495.2z
								 M536.1,493.3l2.5-4.3l64.4,36.7l-5,2.9L536.1,493.3z M579.9,539.1l-5.1,2.9l-61.6-35.2l2.5-4.4L579.9,539.1z M466,534.2
								l61.2,35.3l-4.2,2.4l-63.1-37l3.7-2.1L466,534.2z M467,533.6l2.3-4.2l64,36.5l-4.8,2.8L467,533.6z M470.2,528.7l4.5-2.6
								l64.2,36.6l-4.5,2.6L470.2,528.7z M478.6,527.1l2.5-4.4l63.9,36.4l-5.1,2.9L478.6,527.1z M481.9,522.1l4.5-2.6l64.1,36.5
								l-4.5,2.6L481.9,522.1z M490,520.3l2.5-4.4l64.1,36.6l-5.1,2.9L490,520.3z M493.3,515.2l4.5-2.6l2.3,1.3l0,0l62,35.4
								l-4.4,2.6L493.3,515.2z M501.5,513.5l2.5-4.3l64.2,36.6l-5,2.9L501.5,513.5z"/>
							<polygon id="XMLID_8820_" fill="#F2F2F2" points="455.6,620.6 510.4,588.6 510.4,652.1 							"/>
							<polygon id="XMLID_8819_" fill="#F2F2F2" points="447,620.8 450.4,618.8 510.4,653.3 510.4,657.5 							"/>
							<path id="XMLID_8814_" fill="#383838" d="M445.5,548v72l0,0l0,0l0.5,0.3l0,0l65.4,37.8v-6.5v-65.5L445.5,548z M449.9,551.7
								v65.1l-2,1.2l-1.4,0.9v-69.1L449.9,551.7z M447,619.7l1.4-0.8l2.1-1.2l60,34.5v4.2L447,619.7z M455.6,619.5l54.8-31.9V651
								L455.6,619.5z"/>
						</g>
						<g id="XMLID_8779_">
							<polygon id="XMLID_8803_" fill="#DB1F48" points="558,499.2 558,493.7 584,508.9 583.5,514 							"/>
							<g id="XMLID_8780_">
								<polygon id="XMLID_8802_" fill="#DB1F48" points="609,493.7 583.5,508.5 558,493.7 583.5,479 								"/>
								<polygon id="XMLID_8801_" fill="#DB1F48" points="600.4,493.7 583.5,503.5 566.6,493.7 583.5,484 								"/>
								<path id="XMLID_8798_" fill="#F44573" d="M583.5,480.8l-24,13.8l25.3,14.8l24.1-13.9L583.5,480.8z M583.5,503.5l-14.5-8.9
									l14.5-10.3l16.7,9.3L583.5,503.5z"/>
								<path id="XMLID_8785_" fill="#383838" d="M609.5,493.5L609.5,493.5l-0.5-0.3l-25.5-14.7L558,493.2l0,0l-0.5,0.3l0,0v0.6v5.6
									l25.5,14.7l0.5,0.3l0,0l0,0l0.5-0.3l25.5-14.5V494V493.5L609.5,493.5z M583,513.2L558.5,499v-4.5l24.5,14.1V513.2z
									 M583.5,507.9L559,493.7l24.5-14.1l24.5,14.1L583.5,507.9z"/>
								<path id="XMLID_8781_" fill="#383838" d="M600.7,494.2l0.8-0.4L584,483.7l-0.5-0.3l-18,10.4l18,10.4l15.5-8.9L600.7,494.2
									L600.7,494.2z M584,484.8l15.4,8.9l-2.6,1.5L584,488V484.8L584,484.8z M571.2,495.9l12.3-6.9l12.2,6.9l-12.2,7.1
									L571.2,495.9z"/>
							</g>
						</g>
						<g id="XMLID_8730_">
							<g id="XMLID_8763_">
								<polygon id="XMLID_8769_" fill="#DB1F48" points="474.5,602.8 474.5,591 484.3,596.9 484.3,608.5 								"/>
								<polygon id="XMLID_8768_" fill="#F44573" points="474.5,591 482.9,586.1 488.9,589.6 488.9,594.2 484.3,596.9 								"/>
								<path id="XMLID_8764_" fill="#383838" d="M482.9,585.7l-8.3,4.9l-0.3,0.2v0.4V603l9.8,5.7l0.3,0.2l0,0l0,0l0.3-0.2l4.6-2.6
									v-11.7v-0.8v-4.2L482.9,585.7z M482.9,586.5l5.7,3.3v4.2l-4.2,2.5l-7.3-4.4l-1.9-1.1L482.9,586.5z M474.9,602.6v-11l1.9,1.1
									l7.3,4.4v10.8L474.9,602.6z"/>
							</g>
							<g id="XMLID_8747_">
								<polygon id="XMLID_8762_" fill="#01949A" points="489,606.4 489,588.6 503.9,597.5 503.9,615.1 								"/>
								<polygon id="XMLID_8752_" fill="#56D8D8" points="489,588.6 501.6,581.1 510.8,586.4 510.8,593.4 503.9,597.5 								"/>
								<path id="XMLID_8748_" fill="#383838" d="M501.6,580.6L489,588l-0.5,0.3v0.6v17.8l14.9,8.7l0.5,0.3l0,0l0,0l0.5-0.3l6.9-4
									v-17.7v-1.2v-6.4L501.6,580.6z M501.6,581.7l8.7,5v6.4l-6.4,3.8l-11.1-6.6l-2.8-1.7L501.6,581.7z M489.5,606.1v-16.6
									l2.8,1.7l11,6.6v16.4L489.5,606.1z"/>
							</g>
							<g id="XMLID_8731_">
								<polygon id="XMLID_8746_" fill="#DB1F48" points="496.3,624.8 496.3,613.1 506.1,618.9 506.1,630.5 								"/>
								<polygon id="XMLID_8745_" fill="#F44573" points="496.3,613.1 504.7,608.1 510.7,611.6 510.7,616.2 506.1,618.9 								"/>
								<path id="XMLID_8732_" fill="#383838" d="M504.7,607.7l-8.3,4.9l-0.3,0.2v0.4V625l9.8,5.7l0.3,0.2l0,0l0,0l0.3-0.2l4.6-2.6
									v-11.7v-0.8v-4.2L504.7,607.7z M504.7,608.5l5.7,3.3v4.2l-4.3,2.5l-7.3-4.4l-1.9-1.1L504.7,608.5z M496.7,624.6v-11l1.9,1.1
									l7.3,4.4V630L496.7,624.6z"/>
							</g>
						</g>
					</g>
				</g>
			</g>
		</g>
	</g>
</g>
</svg>
