<?xml version="1.0" encoding="utf-8"?>
<!-- Generator: Adobe Illustrator 16.0.0, SVG Export Plug-In . SVG Version: 6.00 Build 0)  -->
<!DOCTYPE svg PUBLIC "-//W3C//DTD SVG 1.1//EN" "http://www.w3.org/Graphics/SVG/1.1/DTD/svg11.dtd">
<svg version="1.1" id="Layer_1" xmlns="http://www.w3.org/2000/svg" xmlns:xlink="http://www.w3.org/1999/xlink" x="0px" y="0px"
	 width="600.3px" height="454.6px" viewBox="0 0 600.3 454.6" enable-background="new 0 0 600.3 454.6" xml:space="preserve">
<g id="illustration">
	<g>
		<defs>
			<rect id="SVGID_1_" x="-279.2" y="-54.3" width="1019.5" height="662.5"/>
		</defs>
		<clipPath id="SVGID_2_">
			<use xlink:href="#SVGID_1_"  overflow="visible"/>
		</clipPath>
		<g id="XMLID_3203_" clip-path="url(#SVGID_2_)">
			<g id="XMLID_4369_">
				<path id="XMLID_5835_" fill="#D5D5D5" d="M600.3,209.3L222.9,426c-27.2,15.6-121.4,40.4-152.8,22.2l0,0
					C38.7,430,82,375.8,109.3,360.1L469.2,154c10.8-6.2,24.2-6.2,35,0L600.3,209.3z"/>
				<g id="_x34__2_">
					<g id="XMLID_4370_">
						<g id="_x35__1_">
							<path id="XMLID_5834_" fill="#A3A3A3" d="M451.1,176.7l-9.8,3.6L409,161.5L147.9,311.7L46.3,348.4c0,0-41,35-34.6,40.3
								c6.4,5.3,62,25.6,62,25.6l0,0c18.6,7,53.9,7.1,83.2-0.8c21-5.6,41.2-14,60-24.9l270.7-155.9c2.8-1.6,4.7-4.4,5.1-7.5
								l12.5-55.3L451.1,176.7z"/>
							<path id="XMLID_5833_" fill="#DFDFDF" d="M441.3,179.7l-20-11.6l-6.4,2.3l-11.2-6.5L147.9,311.1L46.3,347.9
								c0,0-41.7,35.1-35.3,40.4c3.8,3.2,25.1,11.8,41.7,18.1c19.6,4.1,51.5-1.3,77.8-8.4c21-5.6,41.2-14,60-24.9l309-178.3l5.6-25
								l-54,6.1L441.3,179.7z"/>
							<path id="XMLID_5832_" fill="#FFFFFF" d="M118.7,418c0,0-32.5-2-48.8-14.8c-2.7-2.1-4.8-4.1-6.7-6c-1.2,0.2-2.4,0.3-3.7,0.5
								c-9.8,1.3-23.8,0.3-32.3-0.5c18.2,7.5,43.6,16.4,43.6,16.4l0,0c11.5,4.3,30.3,6.4,49.1,5.2L118.7,418z"/>
							<path id="XMLID_5827_" fill="#383838" d="M450.9,175.5l-9.5,3.4l-20-11.6l-0.6,0.2l-11.9-6.9l-4.8,2.7l-0.4-0.3l-256,147.5
								L46,347.2l-0.2,0.1c-1.5,1.2-36.2,30.7-36.2,39.4c0,0.9,0.3,1.6,0.9,2.1c0.5,0.4,1.2,0.9,2.1,1.4c10.5,6.4,58.6,24,60.8,24.8
								l0.3,0.1c9.2,3.4,22.2,5.1,36.3,5.1c15.4,0,32.2-2,47-6c20.9-5.6,41.2-14,60.2-24.9l270.7-155.8c3-1.7,5-4.6,5.5-8l6.8-30
								l0,0l5.8-25.8L450.9,175.5z M409,162.3l10.2,5.9l-4.1,1.5l-9.4-5.4L409,162.3z M46.1,403.2c-13.9-5.4-27.7-11.2-33-14.3
								c-0.4-0.3-0.8-0.5-1-0.7c-0.2-0.1-0.4-0.4-0.4-1c0-6.7,25.1-29.7,34.9-38.1l101.6-36.8l256-147.3l10.7,6.2l5.8-2.1l20.5,11.9
								l10.1-3.6l29.1-3.6L73.8,359c0,0,0,0,29.1,29.1c5.1,5.1,10.6,9.1,16.2,12.2c-18.6,4.3-47.4,9.6-66.2,5.6
								C50.7,405,48.4,404.1,46.1,403.2z M156.7,412.8c-28.3,7.6-63.9,7.9-82.7,0.8l-0.3-0.1l0,0c-1.3-0.5-7-2.6-14.5-5.4
								c3,0.3,6.2,0.5,9.4,0.5c17.8,0,38.5-4.1,52.5-7.4c18.1,9.3,36.7,9.3,46,8.6C163.6,410.9,160.1,411.9,156.7,412.8z"/>
							<path id="XMLID_5826_" fill="#DB1F48" d="M505.1,170L164.4,366.5C137.2,382.2,43,406.9,11.7,388.7l0,0
								c-31.4-18.2,11.9-72.5,39.2-88.1l340.7-196L505.1,170z"/>
							<polygon id="XMLID_5825_" fill="#F44573" points="487.4,172.7 500.9,172.7 502.7,171.4 435.6,132.8 458.8,156.3 							"/>
							<path id="XMLID_5822_" fill="#383838" d="M44.9,395.9c-13.8,0-25.6-1.9-33.6-6.5C3.8,385,0,378.4,0,369.7
								c0-24.5,30.4-58.2,50.5-69.7l341-196.2l114.4,65.8l-0.2,0.8L164.8,367.1C144.4,378.8,86.2,395.9,44.9,395.9z M391.5,105.5
								L51.2,301.2c-19.8,11.4-49.7,44.5-49.7,68.5c0,8.1,3.5,14.3,10.6,18.4c31.4,18.2,125.1-6.7,152.1-22.2L503.7,170L391.5,105.5
								z"/>
							<path id="XMLID_5821_" fill="#F44573" d="M391.7,137.9L51.4,333.7c-13,7.5-27.6,28.3-34.9,44.2l-0.2,0.4
								c1.3,1.7,3.1,3.3,5.3,4.6l0,0c25.3,14.7,111.1-5.3,133-17.9l316-181.5L391.7,137.9z"/>
							<path id="XMLID_5820_" fill="#383838" d="M489,170.1L489,170.1l-98.3-56.6L51,308.7c-0.2,0.1-0.5,0.3-0.7,0.4
								c-0.5,0.3-1,0.6-1.5,0.9c-0.7,0.4-1.4,0.9-2.1,1.4c-0.2,0.2-0.5,0.3-0.7,0.5c-2.7,1.9-5.5,4.2-8.2,6.7
								c-0.1,0.1-0.2,0.2-0.3,0.3l2,20.2c3.3-3.3,6.7-6,10-7.9l340.3-195.8l78.3,45.1L152.4,361.8c-21.7,12.5-107,32.6-132.3,17.9
								c-2.2-1.3-4-2.9-5.4-4.7c5.2-11.3,14.1-25,23.4-34.7l-2-20.3v-0.1c-0.1,0.1-0.1,0.1-0.2,0.2c-0.4,0.3-0.7,0.7-1.1,1.1
								c-12.3,12-23.9,28.7-24.7,42.3c0,0.1,0,0.2,0,0.3c0,0.4,0,0.8,0,1.1c0,0.2,0,0.4,0,0.5c0,0.4,0,0.7,0.1,1.1
								c0,0.4,0.1,0.9,0.1,1.3c0,0.3,0.1,0.5,0.1,0.8c0.3,1.9,0.9,3.6,1.7,5.1l0,0c0.3,0.5,0.6,1,0.9,1.5c0,0.1,0.1,0.1,0.1,0.2
								l0.2,0.3c0.1,0.1,0.2,0.3,0.3,0.4l0.2,0.3l0,0c1.4,1.7,3.2,3.2,5.3,4.4c6.4,3.7,16.6,5.3,28.7,5.3
								c36.1,0,88.7-13.7,105.1-23.2L488,170.7L489,170.1L489,170.1z"/>
							<g id="XMLID_5815_">
								<polygon id="XMLID_5819_" fill="#DB1F48" points="389.8,134.6 390.8,114.3 487.6,170.1 469.5,180.5 								"/>
								<path id="XMLID_5816_" fill="#383838" d="M469.5,181.2L389.2,135l1-21.7l98.7,56.8L469.5,181.2z M390.4,134.2l79.1,45.5
									l16.9-9.7l-95-54.7L390.4,134.2z"/>
							</g>
							<g id="XMLID_5791_">
								<path id="XMLID_5813_" fill="#01949A" d="M409.5,233.3v8l-1.5,0.9v-8l-2.3,1.3V234l6.1-3.5v1.5L409.5,233.3z"/>
								<path id="XMLID_5810_" fill="#01949A" d="M417.5,236.6l-1.7-2.6l-1.7,1v3.6l-1.5,0.9V230l3.6-2.1c0.8-0.5,1.5-0.6,2-0.4
									s0.7,0.8,0.7,1.7c0,0.7-0.1,1.3-0.4,2c-0.3,0.6-0.7,1.2-1.1,1.6l1.9,2.9L417.5,236.6z M417.3,230.1c0-0.9-0.4-1.1-1.3-0.6
									l-1.9,1.1v2.8l1.9-1.1c0.4-0.2,0.7-0.6,0.9-0.9C417.2,231,417.3,230.6,417.3,230.1z"/>
								<path id="XMLID_5807_" fill="#01949A" d="M425.1,232.2l-0.6-2.1l-2.7,1.6l-0.6,2.8l-1.5,0.9l2.6-11l1.8-1l2.6,8L425.1,232.2
									z M423.1,225.3v0.2c0,0.2-0.1,0.4-0.1,0.6c0,0.2-0.3,1.5-0.9,3.9l2-1.2l-0.7-2.3l-0.2-0.8L423.1,225.3z"/>
								<path id="XMLID_5805_" fill="#01949A" d="M431.9,228.3l-3.1-5.5c0.1,0.7,0.1,1.2,0.1,1.7v5.6l-1.3,0.8v-9.5l1.7-1l3.2,5.5
									c-0.1-0.6-0.1-1.2-0.1-1.8v-5.5l1.3-0.8v9.5L431.9,228.3z"/>
								<path id="XMLID_5803_" fill="#01949A" d="M440.8,220.3c0,0.9-0.3,1.8-0.8,2.6c-0.5,0.8-1.3,1.5-2.3,2.1
									c-0.9,0.5-1.6,0.7-2.1,0.6s-0.9-0.6-1-1.4l1.4-1.2c0.1,0.4,0.3,0.7,0.6,0.8c0.3,0.1,0.7,0,1.2-0.3c1-0.6,1.6-1.3,1.6-2.2
									c0-0.3-0.1-0.5-0.2-0.6c-0.1-0.1-0.3-0.2-0.5-0.1c-0.2,0.1-0.6,0.1-1.2,0.3c-0.5,0.1-0.9,0.2-1.1,0.2s-0.4,0-0.6,0
									c-0.2,0-0.3-0.1-0.4-0.2s-0.2-0.3-0.3-0.5c-0.1-0.2-0.1-0.5-0.1-0.8c0-0.9,0.2-1.7,0.7-2.4c0.5-0.7,1.2-1.4,2.1-1.9
									s1.5-0.7,2-0.6c0.4,0.1,0.7,0.6,0.9,1.3l-1.4,1.1c-0.1-0.4-0.2-0.6-0.4-0.7s-0.6,0-1,0.3c-0.9,0.5-1.3,1.2-1.3,1.9
									c0,0.2,0,0.4,0.1,0.5c0.1,0.1,0.2,0.1,0.4,0.1c0.2,0,0.6-0.1,1.2-0.2c0.7-0.2,1.2-0.3,1.5-0.3c0.3,0,0.5,0,0.7,0.2
									c0.2,0.1,0.3,0.3,0.4,0.6C440.8,219.6,440.8,219.9,440.8,220.3z"/>
								<path id="XMLID_5800_" fill="#01949A" d="M447.7,212.5c0,0.6-0.1,1.2-0.3,1.8c-0.2,0.6-0.5,1.2-0.9,1.6s-0.8,0.9-1.4,1.2
									l-1.8,1v3.3l-1.5,0.9v-9.5l3.2-1.9c0.8-0.5,1.5-0.6,2-0.4C447.5,210.9,447.7,211.5,447.7,212.5z M446.2,213.4
									c0-1-0.4-1.2-1.3-0.7l-1.5,0.9v3.1l1.6-0.9c0.4-0.2,0.7-0.6,0.9-1C446.1,214.4,446.2,213.9,446.2,213.4z"/>
								<path id="XMLID_5797_" fill="#01949A" d="M455.7,209.6c0,1-0.1,1.9-0.4,2.9c-0.3,0.9-0.7,1.7-1.2,2.5
									c-0.5,0.7-1.2,1.3-1.9,1.7c-1.1,0.6-2,0.7-2.6,0.2c-0.6-0.5-1-1.5-1-3.1c0-1.5,0.3-2.9,0.9-4.1c0.6-1.2,1.5-2.2,2.6-2.8
									c1.1-0.7,2-0.7,2.6-0.2C455.4,207.1,455.7,208.1,455.7,209.6z M454.2,210.5c0-1-0.2-1.7-0.6-2.1c-0.4-0.4-0.9-0.4-1.5,0
									c-0.7,0.4-1.2,1-1.5,1.8c-0.4,0.8-0.5,1.7-0.5,2.7s0.2,1.8,0.6,2.1c0.4,0.4,0.9,0.4,1.5,0c0.7-0.4,1.2-1,1.5-1.8
									C454,212.5,454.2,211.5,454.2,210.5z"/>
								<path id="XMLID_5794_" fill="#01949A" d="M461.7,210.9l-1.7-2.6l-1.7,1v3.6l-1.5,0.9v-9.5l3.6-2.1c0.8-0.5,1.5-0.6,2-0.4
									c0.5,0.2,0.7,0.8,0.7,1.7c0,0.7-0.1,1.3-0.4,2c-0.3,0.6-0.7,1.2-1.1,1.6l1.9,2.9L461.7,210.9z M461.5,204.4
									c0-0.9-0.4-1.1-1.3-0.6l-1.9,1.1v2.8l2-1.1c0.4-0.2,0.7-0.6,0.9-0.9C461.4,205.2,461.5,204.8,461.5,204.4z"/>
								<path id="XMLID_5792_" fill="#01949A" d="M467.5,199.5v8l-1.5,0.9v-8l-2.3,1.3v-1.5l6.1-3.5v1.5L467.5,199.5z"/>
							</g>
							<path id="XMLID_5790_" fill="#A3A3A3" d="M190.2,372.6c-18.9,10.9-39,19.2-59.9,24.8c-3,0.8-6.8,1.8-11.2,2.8
								c0.6,0.4,1.3,0.7,1.9,1c3.7-0.9,7-1.7,9.6-2.4c20.9-5.6,41.2-14,60.2-24.9L500,195.5l0.4-1.9L190.2,372.6z"/>
						</g>
						<g id="_x34__4_">
							<path id="XMLID_5789_" fill="#01949A" d="M339,165.8v-87l124.8,15.3v87.5c0.2,1-2,3.2-3.2,3.9l-41.2,23.6
								c-2.3,1.3-6.2,1.2-8.8-0.3l-69.4-40C339.7,168,338.9,166.9,339,165.8z"/>
							<path id="XMLID_5788_" fill="#56D8D8" d="M419.4,121.7l42.9-25c2.3-1.3,2-3.6-0.7-5.1l-69.4-40c-2.6-1.5-6.6-1.6-8.8-0.3
								l-42.9,25c-2.3,1.3-2,3.6,0.7,5.1l69.4,40C413.2,122.8,417.2,123,419.4,121.7z"/>
							<path id="XMLID_5787_" fill="#01949A" d="M339,70.1c0.1,0.9,0.9,1.8,2.1,2.5l69.4,40c2.6,1.5,6.6,1.6,8.8,0.3l42.9-25
								c0.9-0.5,1.3-1.1,1.5-1.8v10.3c0.2,1-0.3,1.9-1.5,2.6l-42.9,25c-2.3,1.3-6.2,1.2-8.8-0.3l-69.4-40c-1.5-0.9-2.2-2-2.2-3
								L339,70.1L339,70.1z"/>
							<path id="XMLID_5786_" fill="#01949A" d="M349.4,67.9l35-20.4c1.8-1.1,5-1,7.2,0.3l61.9,35.6c2.1,1.2,2.4,3.1,0.5,4.1
								l-7.9,4.6l-54-31.1c-2.1-1.2-5.4-1.3-7.2-0.3l-27.1,15.8l-7.9-4.6C347.8,70.9,347.5,69,349.4,67.9z"/>
							<path id="XMLID_5783_" fill="#56D8D8" d="M340.5,70l42.9-25c2.3-1.3,6.2-1.2,8.8,0.3l69.4,40c2.6,1.5,2.9,3.8,0.7,5.1
								l-42.9,25c-2.3,1.3-6.2,1.2-8.8-0.3l-69.4-40C338.6,73.6,338.3,71.4,340.5,70z M349.9,74.4l61.9,35.6
								c2.1,1.2,5.4,1.3,7.2,0.3L454,90c1.8-1.1,1.6-2.9-0.5-4.1l-61.9-35.6c-2.1-1.2-5.4-1.3-7.2-0.3l-35,20.4
								C347.5,71.3,347.8,73.2,349.9,74.4z"/>
							<g id="XMLID_5734_">
								<g id="XMLID_5779_">
									<path id="XMLID_5780_" fill="#383838" d="M405.6,142.8l-8.7-5.2v-13.5l8.7,5V142.8z M398.2,137l6.2,3.7v-10.8l-6.2-3.6V137
										z"/>
								</g>
								<g id="XMLID_5775_">
									<path id="XMLID_5776_" fill="#383838" d="M395.1,136.8l-8.7-5.2v-13.5l8.7,5V136.8z M387.6,130.9l6.2,3.7v-10.8l-6.2-3.6
										V130.9z"/>
								</g>
								<g id="XMLID_5771_">
									<path id="XMLID_5772_" fill="#383838" d="M384.5,130.8l-8.7-5.2v-13.5l8.7,5V130.8z M377,124.9l6.2,3.7v-10.8l-6.2-3.6
										V124.9z"/>
								</g>
								<g id="XMLID_5767_">
									<path id="XMLID_5768_" fill="#383838" d="M373.9,124.7l-8.7-5.2V106l8.7,5V124.7z M366.4,118.9l6.2,3.7v-10.8l-6.2-3.6
										V118.9z"/>
								</g>
								<g id="XMLID_5763_">
									<path id="XMLID_5764_" fill="#383838" d="M363.3,118.7l-8.7-5.2V100l8.7,5V118.7z M355.9,112.8l6.2,3.7v-10.8l-6.2-3.6
										V112.8z"/>
								</g>
								<g id="XMLID_5759_">
									<path id="XMLID_5760_" fill="#383838" d="M352.8,112.7l-8.7-5.2V94l8.7,5V112.7z M345.3,106.8l6.2,3.7V99.8l-6.2-3.6V106.8
										z"/>
								</g>
								<g id="XMLID_5755_">
									<path id="XMLID_5756_" fill="#383838" d="M405.6,158.7l-8.7-5.2V140l8.7,5V158.7z M398.2,152.8l6.2,3.7v-10.8l-6.2-3.6
										V152.8z"/>
								</g>
								<g id="XMLID_5751_">
									<path id="XMLID_5752_" fill="#383838" d="M395.1,152.7l-8.7-5.2V134l8.7,5V152.7z M387.6,146.8l6.2,3.7v-10.8l-6.2-3.6
										V146.8z"/>
								</g>
								<g id="XMLID_5747_">
									<path id="XMLID_5748_" fill="#383838" d="M384.5,146.6l-8.7-5.2V128l8.7,5V146.6z M377,140.8l6.2,3.7v-10.8l-6.2-3.6V140.8
										z"/>
								</g>
								<g id="XMLID_5743_">
									<path id="XMLID_5744_" fill="#383838" d="M373.9,140.6l-8.7-5.2V122l8.7,5V140.6z M366.4,134.7l6.2,3.7v-10.8l-6.2-3.6
										V134.7z"/>
								</g>
								<g id="XMLID_5739_">
									<path id="XMLID_5740_" fill="#383838" d="M363.3,134.6l-8.7-5.2v-13.5l8.7,5V134.6z M355.9,128.7l6.2,3.7v-10.8l-6.2-3.6
										V128.7z"/>
								</g>
								<g id="XMLID_5735_">
									<path id="XMLID_5736_" fill="#383838" d="M352.8,128.6l-8.7-5.2v-13.5l8.7,5V128.6z M345.3,122.7l6.2,3.7v-10.8l-6.2-3.6
										V122.7z"/>
								</g>
							</g>
							<g id="XMLID_5722_">
								<path id="XMLID_5730_" fill="#383838" d="M453.8,82.9l-61.9-35.7c-0.6-0.3-1.2-0.6-1.9-0.8c-0.7-0.2-1.4-0.3-2.1-0.3
									c-1.4,0-2.8,0.2-3.8,0.8l-35,20.4c-1,0.6-1.6,1.5-1.6,2.4c0,0.3,0.1,0.6,0.1,0.8c0.3,0.8,1,1.6,2,2.1l8.3,4.8l0,0l53.7,30.9
									c1.3,0.7,2.9,1.1,4.4,1.1c1.3,0,2.6-0.3,3.5-0.8L446.2,93l0,0l8.3-4.8c1-0.6,1.6-1.5,1.6-2.4
									C455.9,84.8,455.1,83.7,453.8,82.9z M418.7,107.4c-1.6,0.9-4.6,0.8-6.5-0.3l-53-30.5l26-15.1c1.6-0.9,4.6-0.8,6.5,0.3
									l52.9,30.5L418.7,107.4z M453.6,87l-7.5,4.4l-53.7-30.9c-1.3-0.7-2.9-1.1-4.4-1.1c-1.2,0-2.4,0.4-3.3,0.8v-12
									c0.3-0.2,0.7-0.3,1.2-0.4h0.1c0.4-0.1,0.9-0.1,1.3-0.1c0.1,0,0.2,0,0.3,0c0.2,0,0.4,0,0.6,0c0.1,0,0.2,0,0.4,0
									c0.2,0,0.4,0.1,0.6,0.1c0.1,0,0.2,0,0.4,0.1c0.2,0.1,0.4,0.1,0.6,0.2c0.1,0,0.2,0.1,0.3,0.1c0.3,0.1,0.5,0.2,0.8,0.4
									l61.9,35.6c0.9,0.5,1.4,1.1,1.4,1.7C454.5,86.4,454,86.8,453.6,87z"/>
								<path id="XMLID_5723_" fill="#383838" d="M464.5,96.5V86.2c0-0.1,0-0.2,0-0.3c0-1.3-0.9-2.6-2.5-3.5l-69.4-40
									c-2.9-1.6-7-1.8-9.5-0.3l-42.9,25c-1.2,0.7-1.9,1.7-1.9,2.8c0,0.1,0,0.1,0,0.2v10.4v0.1v85.2c-0.1,1.4,0.8,2.7,2.5,3.7
									l69.5,40c1.5,0.9,3.4,1.3,5.3,1.3c1.6,0,3.1-0.3,4.2-1l41.2-23.6c1-0.6,3.8-3.1,3.5-4.5V97.3
									C464.5,96.9,464.5,96.8,464.5,96.5z M410.6,208.2l-69.1-39.8c-1.2-0.7-1.9-1.6-1.8-2.4V83.5c0.3,0.3,0.7,0.5,1.1,0.8
									l69.4,40c0.1,0.1,0.3,0.1,0.4,0.2V208.2z M410.6,122.9l-69.1-39.8c-1.2-0.7-1.9-1.6-1.8-2.4v-7.9c0.3,0.3,0.7,0.5,1.1,0.7
									l69.4,40c0.1,0.1,0.3,0.1,0.4,0.2V122.9z M412.7,209v-83.8c0.9,0.2,1.9,0.4,2.9,0.4v83.8l0.7,0.1
									C415,209.5,413.8,209.4,412.7,209z M412.7,123.7v-9.4c0.2,0,0.4,0.1,0.6,0.1c0.7,0.2,1.4,0.3,2.3,0.2v9.4
									C414.6,124.2,413.6,124,412.7,123.7z M463.1,86.1L463.1,86.1c-0.1,0.5-0.5,1-1.1,1.3l-42.9,25c-2,1.2-5.7,1-8.1-0.3
									l-69.4-40c-1-0.6-1.7-1.3-1.8-2l0,0c0,0,0,0,0-0.1c0-0.8,0.6-1.3,1.2-1.6l42.9-25c0.9-0.5,2.2-0.8,3.5-0.8
									c1.6,0,3.3,0.4,4.6,1.1l69.4,40c1.1,0.6,1.8,1.5,1.8,2.2C463.1,86,463.1,86,463.1,86.1z"/>
							</g>
							<g id="XMLID_5713_">
								<path id="XMLID_5721_" fill="#A3A3A3" d="M407.1,83.8L407.1,83.8L400,12.1l-10.8-5.6V15v73c0,0.2,0,0.4,0,0.7l0,0l0,0
									c0.1,0.7,0.7,1.3,1.6,1.9c2,1.2,5.1,1.3,6.9,0.3l8.3-4.7C407.1,85.5,407.4,84.7,407.1,83.8z"/>
								<path id="XMLID_5720_" fill="#DFDFDF" d="M399.2,5.8l-5,2.8c-1.1,0.6-2.9,0.5-4.1-0.2l0,0c-1.2-0.7-1.3-1.8-0.3-2.4l5-2.8
									c1.1-0.6,2.9-0.5,4.1,0.2l0,0C400.2,4.1,400.3,5.2,399.2,5.8z"/>
								<path id="XMLID_5715_" fill="#383838" d="M407.8,83.7L400.7,12l0,0l0,0V2.4h-0.1c-0.1-0.6-0.6-1.2-1.3-1.7
									c-1.4-0.9-3.6-1-4.9-0.2l-5,2.8c-0.7,0.4-1.1,1-1.1,1.7c0,0.1,0,0.1,0,0.2l0,0v9.3v0.1l0,0l0.1,73.1c-0.1,0.3-0.1,0.6,0,0.9
									l0.3,1c0.3,0.6,0.9,1.1,1.7,1.6c1.2,0.7,2.8,1.1,4.3,1.1c1.2,0,2.4-0.2,3.3-0.8l8.3-4.7C407.7,86.1,408.2,84.9,407.8,83.7z
									 M390.2,4.7l5-2.8c0.4-0.2,0.8-0.3,1.4-0.3c0.7,0,1.4,0.2,2,0.5c0.4,0.2,0.6,0.5,0.6,0.7c0,0.1-0.1,0.2-0.3,0.4l-5,2.8
									c-0.8,0.5-2.4,0.4-3.3-0.2c-0.4-0.3-0.6-0.5-0.6-0.7C389.9,4.9,390,4.8,390.2,4.7z M389.9,7.1c0.8,0.4,1.7,0.6,2.6,0.6
									c0.3,0,0.6,0,0.9-0.1v7.9c-0.9,0.2-2.1,0.1-2.9-0.4c-0.4-0.3-0.6-0.5-0.6-0.7v-0.1V7.1z M391.2,89.8
									c-0.7-0.4-1.1-0.9-1.2-1.4v-0.1c0-0.1,0-0.2,0-0.5V16.5c0.8,0.4,1.7,0.6,2.6,0.6c0.3,0,0.6,0,0.9-0.1l3.1,73.4
									C395,91,392.7,90.7,391.2,89.8z"/>
								<path id="XMLID_5714_" fill="#A3A3A3" d="M400.3,11.8l-6.5,3.6c-0.1,0.1-0.3,0.1-0.5,0.2v1.6c0.4-0.1,0.9-0.2,1.2-0.4
									l6.2-3.5l-0.1-2C400.7,11.4,400.5,11.7,400.3,11.8z"/>
							</g>
							<g id="XMLID_5680_">
								<g id="XMLID_5709_">
									<path id="XMLID_5710_" fill="#01949A" d="M451.2,126.4v-13.6l8.8-5v13.5L451.2,126.4z M452.4,113.5v10.8l6.4-3.7v-10.7
										L452.4,113.5z"/>
								</g>
								<g id="XMLID_5705_">
									<path id="XMLID_5706_" fill="#01949A" d="M440.6,132.3v-13.6l8.8-5v13.5L440.6,132.3z M441.8,119.4v10.8l6.4-3.7v-10.7
										L441.8,119.4z"/>
								</g>
								<g id="XMLID_5701_">
									<path id="XMLID_5702_" fill="#01949A" d="M429.9,138.6V125l8.8-5v13.5L429.9,138.6z M431.1,125.7v10.8l6.4-3.7v-10.7
										L431.1,125.7z"/>
								</g>
								<g id="XMLID_5697_">
									<path id="XMLID_5698_" fill="#01949A" d="M419.2,144.4v-13.6l8.8-5v13.5L419.2,144.4z M420.5,131.5v10.8l6.4-3.7v-10.7
										L420.5,131.5z"/>
								</g>
								<g id="XMLID_5693_">
									<path id="XMLID_5694_" fill="#01949A" d="M451.2,142.1v-13.6l8.8-5V137L451.2,142.1z M452.4,129.2V140l6.4-3.7v-10.7
										L452.4,129.2z"/>
								</g>
								<g id="XMLID_5689_">
									<path id="XMLID_5690_" fill="#01949A" d="M440.6,148.1v-13.6l8.8-5V143L440.6,148.1z M441.8,135.2V146l6.4-3.7v-10.7
										L441.8,135.2z"/>
								</g>
								<g id="XMLID_5685_">
									<path id="XMLID_5686_" fill="#01949A" d="M429.9,154.4v-13.6l8.8-5v13.5L429.9,154.4z M431.1,141.5v10.8l6.4-3.7v-10.7
										L431.1,141.5z"/>
								</g>
								<g id="XMLID_5681_">
									<path id="XMLID_5682_" fill="#01949A" d="M419.2,160.1v-13.6l8.8-5V155L419.2,160.1z M420.5,147.2V158l6.4-3.7v-10.7
										L420.5,147.2z"/>
								</g>
							</g>
							<g id="XMLID_5655_">
								<g id="XMLID_5662_">
									<path id="XMLID_5677_" fill="#383838" d="M362,181.6l-15.7-9.1V145l15.7,9.6V181.6z M347.3,171.9l13.7,7.9v-24.6l-13.7-8.4
										V171.9z"/>
								</g>
								<polygon id="XMLID_5656_" fill="#383838" points="349.6,163.2 349.6,151.8 358.3,157.1 358.3,168.2 								"/>
							</g>
							<g id="XMLID_5645_">
								<polygon id="XMLID_5654_" fill="#A3A3A3" points="439.3,85.1 425,76.9 410.7,85.1 410.7,89.1 425,97.3 425,93.4 								"/>
								<path id="XMLID_5650_" fill="#383838" d="M439.3,84.5L439.3,84.5L425,76.3l-14.8,8.5v0.6v4l14.3,8.2l0,0l0.5,0.3l14.8-8.5
									v-4v-0.6L439.3,84.5z M438.2,85.1L425,92.8l-13.3-7.7l13.3-7.7L438.2,85.1z M411.2,88.8V86l5.5,3.2l7.8,4.5v2.8L411.2,88.8z
									"/>
								<polygon id="XMLID_5649_" fill="#DFDFDF" points="432.6,86 425,90.2 417.4,86 425,81.6 								"/>
								<path id="XMLID_5646_" fill="#383838" d="M425,90.9l-10-5.7l10-5.7l10,5.7L425,90.9z M417.1,85.1l7.9,4.6l7.9-4.6l-7.9-4.6
									L417.1,85.1z"/>
							</g>
							<path id="XMLID_5644_" fill="#01949A" d="M464.5,96.9l-45.4,26.5c-0.9,0.5-2.2,0.8-3.5,0.8v1.5c1.6,0,3.1-0.3,4.2-1
								l44.7-26.1V96.9z"/>
						</g>
						<g id="_x33__4_">
							<g id="XMLID_5635_">
								<path id="XMLID_5643_" fill="#01949A" d="M40.8,374.3L40.8,374.3l-7.1-71.7l-10.8-5.2v8v73c-0.1,0.2,0,0.4,0,0.7l0,0l0,0
									c0.1,0.7,0.7,1.3,1.6,1.9c2,1.2,5.1,1.3,6.9,0.3l8.3-4.7C40.8,376,41.1,375.1,40.8,374.3z"/>
								<path id="XMLID_5642_" fill="#56D8D8" d="M33,296.2l-5,2.8c-1.1,0.6-2.9,0.5-4.1-0.2l0,0c-1.2-0.7-1.3-1.8-0.3-2.4l5-2.8
									c1.1-0.6,2.9-0.5,4.1,0.2l0,0C33.9,294.6,34,295.6,33,296.2z"/>
								<path id="XMLID_5637_" fill="#383838" d="M41.6,374.1l-7.1-71.6l0,0l0,0v-9.6h-0.1c-0.1-0.6-0.6-1.2-1.3-1.7
									c-1.5-0.9-3.6-0.9-4.9-0.2l-5,2.8c-0.7,0.4-1.1,1-1.1,1.7c0,0.1,0,0.1,0,0.2l0,0v9.3v0.1l0,0l0.1,73.1
									c-0.1,0.3-0.1,0.6,0,0.9l0.3,1c0.3,0.6,0.9,1.1,1.7,1.6c1.2,0.7,2.8,1.1,4.3,1.1c1.2,0,2.4-0.2,3.3-0.8l8.3-4.7
									C41.4,376.6,42,375.4,41.6,374.1z M24,295.1l5-2.8c0.4-0.2,0.8-0.3,1.4-0.3c0.7,0,1.4,0.2,2,0.5c0.4,0.3,0.6,0.5,0.6,0.7
									c0,0.1-0.1,0.2-0.3,0.4l-5,2.8c-0.8,0.5-2.4,0.4-3.3-0.2c-0.4-0.3-0.6-0.5-0.6-0.7C23.6,295.4,23.8,295.3,24,295.1z
									 M23.7,297.6c0.8,0.4,1.7,0.6,2.6,0.6c0.3,0,0.6,0,0.9-0.1v7.9c-0.9,0.2-2.1,0.1-2.9-0.4c-0.4-0.3-0.6-0.5-0.6-0.7v-0.1
									V297.6z M24.9,380.3c-0.7-0.4-1.1-0.9-1.2-1.4v-0.1c0-0.1,0-0.2,0-0.5V307c0.8,0.4,1.7,0.6,2.6,0.6c0.3,0,0.6,0,0.9-0.1
									l3.1,73.4C28.7,381.4,26.4,381.2,24.9,380.3z"/>
								<path id="XMLID_5636_" fill="#01949A" d="M34.1,302.2l-6.5,3.6c-0.1,0.1-0.3,0.1-0.5,0.2v1.6c0.4-0.1,0.9-0.2,1.2-0.4
									l6.2-3.5l-0.1-2C34.5,301.9,34.2,302.2,34.1,302.2z"/>
							</g>
							<g id="XMLID_5278_">
								<polygon id="XMLID_5634_" fill="#DFDFDF" points="52.8,342.3 79.7,326.4 106.1,342.3 80.2,357.6 								"/>
								<polygon id="XMLID_5633_" fill="#FFFFFF" points="52.8,344.6 79.7,328.8 106.1,344.6 80.2,359.9 								"/>
								<polygon id="XMLID_5388_" fill="#A3A3A3" points="52.8,354.4 52.8,342.3 80.2,357.6 79.8,370 								"/>
								<path id="XMLID_5387_" fill="#DFDFDF" d="M81.4,338.8c2.1,0.2,3,1.2,3,2.5c0,0.2,0,0,0,0.2l6.5,3.1c0.6-0.9,1-1.9,1-3
									c0-4-5-7.3-11.2-7.6L81.4,338.8z"/>
								<path id="XMLID_5383_" fill="#383838" d="M91.2,345.2l-7.7-3.4l0.2-0.5c0-0.4,0-1.5-2.4-1.8l-0.5-0.1l-0.7-6.2h0.6
									c6.8,0.3,11.9,3.9,11.9,8.3c0,1.2-0.4,2.3-1.1,3.4L91.2,345.2z M85.1,341l5.5,2.7c0.4-0.7,0.6-1.4,0.6-2.1
									c0-3.4-4.2-6.3-9.7-6.8l0.5,3.4C84.4,338.6,85,340,85.1,341z"/>
								<path id="XMLID_5382_" fill="#DFDFDF" d="M82.5,343.4c-0.9,0.5-0.5-1.1-1.9-1.1c-1.3,0-2.8,1.6-3.7,1.1l-6.7,2.9
									c2.2,1.7,5.7,2.9,9.5,2.9c4.1,0,7.7-1.3,9.9-3.2L82.5,343.4z"/>
								<path id="XMLID_5378_" fill="#383838" d="M79.7,349.9c-3.9,0-7.5-1.1-9.9-3l-0.7-0.6l7.9-3.7l0.3,0.2c0.2,0,0.8-0.3,1.2-0.5
									c0.7-0.3,1.4-0.7,2.2-0.7c1.1,0,1.5,0.7,1.7,1.1l0,0l0.4,0.1l8,3.1l-0.7,0.6C87.7,348.6,83.8,349.9,79.7,349.9z M71.7,346.4
									c2.1,1.3,5,2,8,2c3.2,0,6.3-0.8,8.5-2.3l-5.6-2c-0.2,0.1-0.4,0.1-0.6,0c-0.4-0.1-0.7-0.5-0.8-0.8c-0.2-0.4-0.3-0.4-0.5-0.4
									c-0.4,0-1,0.3-1.5,0.6c-0.7,0.4-1.5,0.7-2.1,0.6L71.7,346.4z"/>
								<path id="XMLID_5377_" fill="#DFDFDF" d="M75,341.3C74.9,341.1,75,341.5,75,341.3c0-1.3,0.9-2.8,3-3.1l0.8-4.2
									c-6.3,0.3-11.2,3.6-11.2,7.6c0,1.2,0.5,2.4,1.3,3.4L75,341.3z"/>
								<path id="XMLID_5373_" fill="#383838" d="M68.5,345.7l-0.2-0.3c-1-1.2-1.5-2.5-1.5-3.9c0-4.4,5.1-8,11.9-8.3h0.6l-0.7,5.6
									l-0.5,0.1c-1.7,0.2-2.3,1.3-2.4,2.2l0.2,0.4l-0.2,0.1v0.2l-0.6,0.1L68.5,345.7z M77.9,334.8c-5.5,0.5-9.7,3.4-9.7,6.8
									c0,0.9,0.3,1.7,0.8,2.5l5.1-3.1l0.2-0.2l0,0c0.2-1.3,1.2-2.7,3.1-3.1L77.9,334.8z"/>
								<path id="XMLID_5372_" fill="#A3A3A3" d="M84.4,341.3c0,1.5-2.1,2.7-4.7,2.7c-2.6,0-4.7-1.2-4.7-2.7c0-1.1,1.2-3.8,2.9-4.3
									c0.6-0.2,1.1,1.6,1.8,1.6c0.7,0,1.2-1.8,1.8-1.6C83.1,337.4,84.4,340.2,84.4,341.3z"/>
								<path id="XMLID_5369_" fill="#383838" d="M79.7,344.6c-3,0-5.4-1.5-5.4-3.4c0-1.2,1.3-4.4,3.4-4.9c0.8-0.2,1.3,0.5,1.6,1
									c0.1,0.1,0.3,0.4,0.4,0.5c0.1-0.1,0.3-0.3,0.4-0.5c0.4-0.5,0.9-1.2,1.6-1c1.9,0.5,3.4,3.6,3.4,5
									C85.1,343.2,82.7,344.6,79.7,344.6z M77.9,337.8c-1.1,0.5-2.1,2.7-2.1,3.5c0,0.9,1.6,1.9,4,1.9c2.3,0,4-1,4-1.9
									c0-0.8-1-3-2.2-3.5c-0.1,0.1-0.2,0.3-0.3,0.4c-0.4,0.5-0.8,1.2-1.5,1.2c-0.7,0-1.2-0.6-1.5-1.2
									C78.1,338.1,78,337.9,77.9,337.8z"/>
								<path id="XMLID_5368_" fill="#DFDFDF" d="M83,338.5c0,1-1.5,1.8-3.3,1.8c-1.8,0-3.3-0.8-3.3-1.8s1.5-1.8,3.3-1.8
									C81.5,336.7,83,337.5,83,338.5z"/>
								<ellipse id="XMLID_5367_" fill="#FFFFFF" cx="79.7" cy="339.9" rx="3.3" ry="1.8"/>
								<path id="XMLID_5364_" fill="#383838" d="M79.7,341.1c-2.3,0-4-1.1-4-2.6s1.7-2.6,4-2.6c2.2,0,4,1.1,4,2.6
									S81.9,341.1,79.7,341.1z M79.7,337.4c-1.5,0-2.5,0.7-2.5,1.1s1,1.1,2.5,1.1c1.6,0,2.5-0.7,2.5-1.1S81.3,337.4,79.7,337.4z"
									/>
								<path id="XMLID_5360_" fill="#383838" d="M106.2,341.4L106.2,341.4l-26.5-15.8l-26.9,15.8l-0.7,0.4v12.9l27.8,16.1L107,355
									v-13.2L106.2,341.4z M79.7,327.3l25.1,15l-20.1,11.9l-4.5,2.6l-26-14.5L79.7,327.3z M53.4,343.5l4.8,2.7L79.5,358v11l-26-15
									L53.4,343.5z"/>
							</g>
						</g>
						<g id="_x32__3_">
							<polygon id="XMLID_5276_" fill="#01949A" points="346.4,197.1 373.3,181.3 399.8,197.1 373.9,212.4 							"/>
							<polygon id="XMLID_5275_" fill="#56D8D8" points="346.4,199.4 373.3,183.6 399.8,199.4 373.9,214.7 							"/>
							<polygon id="XMLID_5273_" fill="#01949A" points="346.4,209.2 346.4,197.1 373.9,212.4 373.4,224.9 							"/>
							<path id="XMLID_5270_" fill="#01949A" d="M375,193.7c2.1,0.2,3,1.2,3,2.5c0,0.2,0,0,0,0.2l6.5,3.1c0.6-0.9,1-1.9,1-3
								c0-4-5-7.3-11.2-7.6L375,193.7z"/>
							<path id="XMLID_5267_" fill="#383838" d="M384.9,200.1l-7.7-3.4l0.1-0.5c0-0.4,0-1.5-2.4-1.8l-0.5-0.1l-0.7-6.2h0.6
								c6.8,0.3,11.9,3.9,11.9,8.3c0,1.2-0.4,2.3-1.1,3.4L384.9,200.1z M378.7,195.8l5.5,2.7c0.4-0.7,0.6-1.4,0.6-2.1
								c0-3.4-4.2-6.3-9.7-6.8l0.5,3.4C378.1,193.5,378.6,194.9,378.7,195.8z"/>
							<path id="XMLID_5266_" fill="#01949A" d="M376.1,198.2c-0.9,0.5-0.5-1.1-1.9-1.1c-1.3,0-2.8,1.6-3.7,1.1l-6.7,2.9
								c2.2,1.7,5.7,2.9,9.5,2.9c4.1,0,7.7-1.3,9.9-3.2L376.1,198.2z"/>
							<path id="XMLID_5263_" fill="#383838" d="M373.3,204.7c-3.9,0-7.5-1.1-9.9-3l-0.7-0.6l7.9-3.7l0.3,0.2c0.2,0,0.8-0.3,1.2-0.5
								c0.7-0.3,1.4-0.7,2.2-0.7c1.1,0,1.5,0.7,1.7,1.1l0,0l0.3,0.1l8,3.1l-0.7,0.6C381.3,203.4,377.4,204.7,373.3,204.7z
								 M365.3,201.3c2.1,1.3,5,2,8,2c3.2,0,6.3-0.8,8.5-2.3l-5.6-2c-0.2,0.1-0.4,0.1-0.6,0c-0.4-0.1-0.7-0.5-0.8-0.8
								c-0.2-0.4-0.3-0.4-0.5-0.4c-0.4,0-1,0.3-1.5,0.6c-0.7,0.4-1.5,0.8-2.1,0.6L365.3,201.3z"/>
							<path id="XMLID_5262_" fill="#01949A" d="M368.6,196.1C368.6,195.9,368.6,196.3,368.6,196.1c0-1.3,0.9-2.8,3-3.1l0.7-4.2
								c-6.3,0.3-11.2,3.6-11.2,7.6c0,1.2,0.5,2.4,1.3,3.4L368.6,196.1z"/>
							<path id="XMLID_5259_" fill="#383838" d="M362.2,200.6l-0.2-0.3c-1-1.2-1.5-2.5-1.5-3.9c0-4.4,5.1-8,11.9-8.3h0.5l-0.6,5.6
								l-0.5,0.1c-1.7,0.2-2.3,1.3-2.4,2.2l0.2,0.4l-0.2,0.1v0.2l-0.6,0.1L362.2,200.6z M371.6,189.6c-5.5,0.5-9.7,3.4-9.7,6.8
								c0,0.8,0.3,1.7,0.8,2.5l5.1-3.1l0.2-0.2l0,0c0.2-1.3,1.2-2.7,3.1-3.1L371.6,189.6z"/>
							<path id="XMLID_5258_" fill="#01949A" d="M378,196.1c0,1.5-2.1,2.6-4.7,2.6s-4.7-1.2-4.7-2.6c0-1.1,1.2-3.8,2.8-4.3
								c0.6-0.2,1.1,1.6,1.8,1.6c0.7,0,1.2-1.8,1.8-1.6C376.7,192.3,378,195.1,378,196.1z"/>
							<path id="XMLID_5255_" fill="#383838" d="M373.4,199.5c-3,0-5.4-1.5-5.4-3.4c0-1.2,1.3-4.4,3.4-5c0.8-0.2,1.3,0.5,1.6,1
								c0.1,0.1,0.3,0.4,0.4,0.5c0.1-0.1,0.3-0.3,0.4-0.5c0.4-0.5,0.9-1.2,1.6-1c1.9,0.5,3.4,3.6,3.4,5
								C378.8,198,376.4,199.5,373.4,199.5z M371.5,192.6c-1.1,0.5-2.1,2.7-2.1,3.5c0,0.9,1.6,1.9,4,1.9c2.3,0,4-1,4-1.9
								c0-0.8-1-3-2.2-3.5c-0.1,0.1-0.2,0.3-0.3,0.4c-0.4,0.5-0.8,1.2-1.5,1.2s-1.2-0.6-1.5-1.2
								C371.7,192.9,371.6,192.7,371.5,192.6z"/>
							<ellipse id="XMLID_5254_" fill="#01949A" cx="373.4" cy="193.4" rx="3.3" ry="1.8"/>
							<path id="XMLID_5253_" fill="#56D8D8" d="M376.6,194.8c0,1-1.5,1.8-3.3,1.8c-1.8,0-3.3-0.8-3.3-1.8s1.5-1.8,3.3-1.8
								C375.1,193,376.6,193.8,376.6,194.8z"/>
							<path id="XMLID_5250_" fill="#383838" d="M373.4,195.9c-2.3,0-4-1.1-4-2.6s1.7-2.6,4-2.6c2.2,0,4,1.1,4,2.6
								C377.3,194.8,375.6,195.9,373.4,195.9z M373.4,192.3c-1.5,0-2.5,0.7-2.5,1.1c0,0.5,1,1.1,2.5,1.1c1.6,0,2.5-0.7,2.5-1.1
								C375.9,192.9,374.9,192.3,373.4,192.3z"/>
							<path id="XMLID_5246_" fill="#383838" d="M399.8,196.3L399.8,196.3l-26.5-15.8l-26.9,15.8l-0.7,0.4v12.9l27.8,16.1l27.1-15.8
								v-13.2L399.8,196.3z M373.3,182.1l25.1,15L378.3,209l-4.5,2.6l-26-14.5L373.3,182.1z M347.1,198.3l4.8,2.7l21.2,11.8v11
								l-26-15V198.3z"/>
						</g>
						<g id="_x31__3_">
							<g id="XMLID_5221_">
								<polygon id="XMLID_5245_" fill="#A3A3A3" points="256,212.4 256,174.1 328.8,216.1 328.8,254.8 								"/>
								<polygon id="XMLID_5244_" fill="#DFDFDF" points="256,173 283.1,157.3 355.7,199.2 328.8,214.7 								"/>
								<polygon id="XMLID_5243_" fill="#A3A3A3" points="329.1,215 328.8,218.4 256,176.8 256,173.2 								"/>
								<polygon id="XMLID_5242_" fill="#FFFFFF" points="258.7,174.7 283.1,160.5 355.7,202.5 331.5,216.4 								"/>
								<path id="XMLID_5227_" fill="#383838" d="M283.1,156.4l-27.7,16.2v40.2l73.4,42.9l27.7-16.1v-40.7L283.1,156.4z
									 M256.7,177.8l5.3,3V215l-5.2-3L256.7,177.8z M315.9,211.7l5.6,3.2v34.9l-5.7-3.3l0,0L315.9,211.7L315.9,211.7z
									 M314.9,245.9l-5.6-3.3v-34.7l5.6,3.2V245.9z M308.3,207.4V242l-5.6-3.3v-34.6l5.8,3.3H308.3z M301.6,238.2l-5.6-3.3v-34.6
									l5.6,3.2V238.2z M295,234.3l-5.6-3.3v-34.5l5.6,3.2V234.3z M288.4,230.4l-5.5-3.2v-34.4l5.5,3.2V230.4z M281.8,226.6
									l-5.6-3.3V189l5.6,3.2V226.6z M275.2,222.7l-5.6-3.3v-34.3l5.6,3.2V222.7z M268.6,218.9l-5.6-3.3v-34.2l5.6,3.2V218.9z
									 M328,253.6l-5.5-3.2v-34.9l5.5,3.1V253.6z M328,215.6v0.2v1.5l-71.4-40.8V174l71.4,41.1V215.6z M328.8,213.9L257.5,173
									l25.6-14.9l71.2,41.1L328.8,213.9z"/>
								<polygon id="XMLID_5226_" fill="#DFDFDF" points="356.4,202.2 356.4,200.9 328.1,217.3 328.1,218.6 342.4,210.4 
									342.4,247.7 343.4,247.1 343.4,209.8 								"/>
								<g id="XMLID_5224_">
									<path id="XMLID_5225_" fill="#DFDFDF" d="M336.9,237.2c-0.3,0-0.6-0.1-0.8-0.2l-0.4-0.2c-0.2-0.1-0.3-0.4-0.2-0.6l0,0
										c0.1-0.2,0.4-0.3,0.6-0.2l0.4,0.2c0.3,0.2,0.6,0.2,0.9,0l2.8-1.5l-0.4-0.3c-0.2-0.1-0.3-0.4-0.2-0.6l0,0
										c0.1-0.2,0.4-0.3,0.6-0.2l0.4,0.3c0.3,0.2,0.4,0.5,0.4,0.8c0,0.3-0.2,0.6-0.5,0.8l-2.8,1.5
										C337.5,237.1,337.2,237.2,336.9,237.2z"/>
								</g>
								<g id="XMLID_5222_">
									<path id="XMLID_5223_" fill="#DFDFDF" d="M346.5,231.8c-0.3,0-0.6-0.1-0.8-0.2l-0.4-0.2c-0.2-0.1-0.3-0.4-0.2-0.6l0,0
										c0.1-0.2,0.4-0.3,0.6-0.2l0.4,0.2c0.3,0.2,0.6,0.2,0.9,0l2.8-1.5l-0.4-0.3c-0.2-0.1-0.3-0.4-0.2-0.6l0,0
										c0.1-0.2,0.4-0.3,0.6-0.2l0.4,0.2c0.3,0.2,0.4,0.5,0.4,0.8c0,0.3-0.2,0.6-0.5,0.8l-2.8,1.5
										C347.1,231.7,346.8,231.8,346.5,231.8z"/>
								</g>
							</g>
							<g id="XMLID_5179_">
								<polygon id="XMLID_5217_" fill="#56D8D8" points="226.6,229.6 226.6,191.4 299.3,233.4 299.3,272.1 								"/>
								<polygon id="XMLID_5216_" fill="#D5D5D5" points="226.6,190.2 253.6,174.5 326.3,216.4 299.3,232 								"/>
								<polygon id="XMLID_5215_" fill="#A3A3A3" points="299.7,232.2 299.3,235.6 226.6,194 226.6,190.4 								"/>
								<polygon id="XMLID_5214_" fill="#F2F2F2" points="229.3,191.9 253.6,177.7 326.3,219.7 302,233.6 								"/>
								<path id="XMLID_5193_" fill="#383838" d="M253.6,173.6l-27.7,16.2V230l73.4,42.9l27.7-16.1V216L253.6,173.6z M227.2,195
									l5.3,3v34.2l-5.2-3L227.2,195z M286.5,228.9l5.6,3.2V267l-5.6-3.3l0,0V228.9z M285.5,263.1l-5.6-3.3v-34.7l5.6,3.2V263.1z
									 M278.9,224.7v34.6l-5.6-3.3v-34.6l5.8,3.3H278.9z M272.2,255.4l-5.6-3.3v-34.6l5.6,3.2V255.4z M265.6,251.5l-5.6-3.3v-34.5
									l5.6,3.2V251.5z M259,247.7l-5.5-3.2V210l5.5,3.2V247.7z M252.4,243.8l-5.6-3.3v-34.3l5.6,3.2V243.8z M245.8,240l-5.6-3.3
									v-34.3l5.6,3.2V240z M239.1,236.1l-5.6-3.3v-34.2l5.6,3.2V236.1z M298.6,270.8l-5.5-3.2v-34.9l5.5,3.1V270.8z M298.6,232.8
									v0.2v1.5l-71.4-40.8v-2.4l71.4,41.1V232.8z M299.3,231.1L228,190.2l25.6-14.9l71.2,41.1L299.3,231.1z"/>
								<polygon id="XMLID_5192_" fill="#56D8D8" points="327,219.5 327,218.2 298.7,234.5 298.7,235.8 313,227.6 313,264.9 
									314,264.3 314,227 								"/>
								<g id="XMLID_5182_">
									<path id="XMLID_5183_" fill="#56D8D8" d="M307.5,254.4c-0.3,0-0.6-0.1-0.9-0.2l-0.4-0.2c-0.2-0.1-0.3-0.4-0.2-0.6l0,0
										c0.1-0.2,0.4-0.3,0.6-0.2l0.4,0.2c0.3,0.2,0.6,0.2,0.9,0l2.8-1.5l-0.4-0.3c-0.2-0.1-0.3-0.4-0.2-0.6l0,0
										c0.1-0.2,0.4-0.3,0.6-0.2l0.4,0.2c0.3,0.2,0.4,0.5,0.4,0.8c0,0.3-0.2,0.6-0.5,0.8l-2.8,1.5
										C308.1,254.3,307.7,254.4,307.5,254.4z"/>
								</g>
								<g id="XMLID_5180_">
									<path id="XMLID_5181_" fill="#56D8D8" d="M317.1,249c-0.3,0-0.6-0.1-0.9-0.2l-0.4-0.2c-0.2-0.1-0.3-0.4-0.2-0.6l0,0
										c0.1-0.2,0.4-0.3,0.6-0.2l0.4,0.2c0.3,0.2,0.6,0.2,0.9,0l2.8-1.5l-0.4-0.3c-0.2-0.1-0.3-0.4-0.2-0.6l0,0
										c0.1-0.2,0.4-0.3,0.6-0.2l0.4,0.3c0.3,0.2,0.4,0.5,0.4,0.8s-0.2,0.6-0.5,0.8l-2.8,1.5C317.7,248.9,317.4,249,317.1,249z"/>
								</g>
							</g>
							<g id="XMLID_5142_">
								<polygon id="XMLID_5178_" fill="#A3A3A3" points="197.2,246.8 197.2,208.6 269.9,250.6 269.9,289.3 								"/>
								<polygon id="XMLID_5177_" fill="#D5D5D5" points="197.2,207.4 224.2,191.7 296.9,233.7 269.9,249.2 								"/>
								<polygon id="XMLID_5176_" fill="#A3A3A3" points="270.3,249.4 269.9,252.8 197.2,211.2 197.2,207.6 								"/>
								<polygon id="XMLID_5166_" fill="#F2F2F2" points="199.9,209.1 224.2,194.9 296.9,236.9 272.6,250.8 								"/>
								<path id="XMLID_5148_" fill="#383838" d="M224.2,190.8L196.5,207v40.2l73.4,42.9l27.7-16.1v-40.7L224.2,190.8z M197.8,212.2
									l5.3,3v34.2l-5.2-3L197.8,212.2z M257.1,246.1l5.6,3.2v34.9l-5.6-3.3l0,0V246.1z M256.1,280.3l-5.6-3.3v-34.7l5.6,3.2V280.3
									z M249.4,241.9v34.6l-5.6-3.3v-34.6l5.8,3.3H249.4z M242.8,272.6l-5.6-3.3v-34.6l5.6,3.2V272.6z M236.2,268.7l-5.6-3.3V231
									l5.6,3.2V268.7z M229.5,264.9l-5.5-3.2v-34.4l5.5,3.2V264.9z M223,261l-5.6-3.3v-34.3l5.6,3.2V261z M216.3,257.2l-5.6-3.3
									v-34.2l5.6,3.2V257.2z M209.7,253.3l-5.6-3.3v-34.2l5.6,3.2V253.3z M269.2,288l-5.5-3.2v-34.9l5.5,3.1V288z M269.2,250v0.2
									v1.5l-71.4-40.8v-2.4l71.4,41.1V250z M269.9,248.3l-71.3-40.9l25.6-14.9l71.2,41.1L269.9,248.3z"/>
								<polygon id="XMLID_5147_" fill="#DFDFDF" points="297.6,236.7 297.6,235.4 269.3,251.7 269.3,253 283.6,244.8 283.6,282.1 
									284.6,281.5 284.6,244.2 								"/>
								<g id="XMLID_5145_">
									<path id="XMLID_5146_" fill="#DFDFDF" d="M278,271.6c-0.3,0-0.6-0.1-0.8-0.2l-0.4-0.2c-0.2-0.1-0.3-0.4-0.2-0.6l0,0
										c0.1-0.2,0.4-0.3,0.6-0.2l0.4,0.2c0.3,0.2,0.6,0.2,0.9,0l2.8-1.5l-0.4-0.3c-0.2-0.1-0.3-0.4-0.1-0.6l0,0
										c0.1-0.2,0.4-0.3,0.6-0.2l0.4,0.3c0.3,0.2,0.4,0.5,0.4,0.8c0,0.3-0.2,0.6-0.5,0.8l-2.8,1.5
										C278.6,271.5,278.3,271.6,278,271.6z"/>
								</g>
								<g id="XMLID_5143_">
									<path id="XMLID_5144_" fill="#DFDFDF" d="M287.7,266.2c-0.3,0-0.6-0.1-0.8-0.2l-0.4-0.2c-0.2-0.1-0.3-0.4-0.2-0.6l0,0
										c0.1-0.2,0.4-0.3,0.6-0.2l0.4,0.2c0.3,0.2,0.6,0.2,0.9,0l2.8-1.5l-0.4-0.3c-0.2-0.1-0.3-0.4-0.1-0.6l0,0
										c0.1-0.2,0.4-0.3,0.6-0.2l0.4,0.3c0.3,0.2,0.4,0.5,0.4,0.8c0,0.3-0.2,0.6-0.5,0.8l-2.8,1.5
										C288.3,266.1,288,266.2,287.7,266.2z"/>
								</g>
							</g>
							<g id="XMLID_5115_">
								<polygon id="XMLID_5141_" fill="#56D8D8" points="167.8,264 167.8,225.8 240.5,267.8 240.5,306.5 								"/>
								<polygon id="XMLID_5140_" fill="#D5D5D5" points="167.8,224.6 194.8,208.9 267.5,250.9 240.5,266.4 								"/>
								<polygon id="XMLID_5139_" fill="#A3A3A3" points="240.9,266.6 240.5,270 167.8,228.4 167.8,224.8 								"/>
								<polygon id="XMLID_5138_" fill="#F2F2F2" points="170.5,226.3 194.8,212.2 267.5,254.1 243.2,268 								"/>
								<path id="XMLID_5122_" fill="#383838" d="M194.8,208.1l-27.7,16.2v40.2l73.4,42.9l27.7-16.1v-40.7L194.8,208.1z
									 M168.4,229.5l5.3,3v34.2l-5.2-3L168.4,229.5z M227.7,263.4l5.6,3.2v34.9l-5.7-3.3l0,0v-34.8H227.7z M226.6,297.6l-5.6-3.3
									v-34.7l5.6,3.2V297.6z M220,259.1v34.6l-5.6-3.3v-34.6l5.8,3.3H220z M213.4,289.8l-5.6-3.3V252l5.6,3.2V289.8z M206.7,285.9
									l-5.6-3.3v-34.5l5.6,3.2V285.9z M200.1,282.1l-5.5-3.2v-34.4l5.5,3.2V282.1z M193.6,278.2l-5.6-3.3v-34.3l5.6,3.2V278.2z
									 M186.9,274.4l-5.6-3.3v-34.3l5.6,3.2V274.4z M180.3,270.5l-5.6-3.3V233l5.6,3.2V270.5z M239.8,305.2l-5.5-3.2v-34.9
									l5.5,3.1V305.2z M239.8,267.2v0.2v1.5L168.4,228v-2.4l71.4,41.1V267.2z M240.5,265.6l-71.3-40.9l25.6-14.9L266,251
									L240.5,265.6z"/>
								<polygon id="XMLID_5121_" fill="#56D8D8" points="268.2,253.9 268.2,252.6 239.9,268.9 239.9,270.2 254.2,262 254.2,299.3 
									255.2,298.7 255.2,261.4 								"/>
								<g id="XMLID_5119_">
									<path id="XMLID_5120_" fill="#56D8D8" d="M248.6,288.8c-0.3,0-0.6-0.1-0.8-0.2l-0.4-0.2c-0.2-0.1-0.3-0.4-0.2-0.6l0,0
										c0.1-0.2,0.4-0.3,0.6-0.2l0.4,0.2c0.3,0.2,0.6,0.2,0.9,0l2.8-1.5l-0.4-0.3c-0.2-0.1-0.3-0.4-0.2-0.6l0,0
										c0.1-0.2,0.4-0.3,0.6-0.2l0.4,0.3c0.3,0.2,0.4,0.5,0.4,0.8c0,0.3-0.2,0.6-0.5,0.8l-2.8,1.5
										C249.2,288.7,248.9,288.8,248.6,288.8z"/>
								</g>
								<g id="XMLID_5117_">
									<path id="XMLID_5118_" fill="#56D8D8" d="M258.2,283.4c-0.3,0-0.6-0.1-0.8-0.2L257,283c-0.2-0.1-0.3-0.4-0.2-0.6l0,0
										c0.1-0.2,0.4-0.3,0.6-0.2l0.4,0.2c0.3,0.2,0.6,0.2,0.9,0l2.8-1.5l-0.5-0.3c-0.2-0.1-0.3-0.4-0.1-0.6l0,0
										c0.1-0.2,0.4-0.3,0.6-0.2l0.4,0.2c0.3,0.2,0.4,0.5,0.4,0.8c0,0.3-0.2,0.6-0.5,0.8l-2.8,1.5
										C258.8,283.3,258.5,283.4,258.2,283.4z"/>
								</g>
							</g>
							<g id="XMLID_5089_">
								<polygon id="XMLID_5114_" fill="#56D8D8" points="138.3,281.2 138.3,243 211.1,285 211.1,323.7 								"/>
								<polygon id="XMLID_5113_" fill="#D5D5D5" points="138.3,241.9 165.4,226.1 238,268.1 211.1,283.6 								"/>
								<polygon id="XMLID_5112_" fill="#01949A" points="211.4,283.8 211.1,287.2 138.3,245.6 138.3,242 								"/>
								<polygon id="XMLID_5111_" fill="#F2F2F2" points="141.1,243.5 165.4,229.4 238,271.4 213.8,285.3 								"/>
								<path id="XMLID_5095_" fill="#383838" d="M165.4,225.3l-27.7,16.2v40.2l73.4,42.9l27.7-16.1v-40.7L165.4,225.3z M139,246.7
									l5.3,3v34.2l-5.2-3L139,246.7z M198.2,280.6l5.6,3.2v34.9l-5.6-3.3l0,0V280.6z M197.2,314.8l-5.6-3.3v-34.7l5.6,3.2V314.8z
									 M190.6,276.3v34.6l-5.6-3.3V273l5.8,3.3H190.6z M184,307l-5.6-3.3v-34.6l5.6,3.2V307z M177.3,303.2l-5.6-3.3v-34.5l5.6,3.2
									V303.2z M170.7,299.3l-5.5-3.2v-34.4l5.5,3.2V299.3z M164.1,295.5l-5.6-3.3v-34.3l5.6,3.2V295.5z M157.5,291.6l-5.6-3.3
									v-34.2l5.6,3.2V291.6z M150.9,287.7l-5.6-3.3v-34.2l5.6,3.2V287.7z M210.4,322.5l-5.5-3.2v-34.9l5.5,3.1V322.5z
									 M210.4,284.4v0.2v1.5L139,245.3v-2.4l71.4,41.1V284.4z M211.1,282.8l-71.3-40.9l25.6-14.9l71.2,41.1L211.1,282.8z"/>
								<polygon id="XMLID_5094_" fill="#56D8D8" points="238.8,271.1 238.8,269.8 210.4,286.2 210.5,287.5 224.7,279.2 
									224.7,316.6 225.8,316 225.8,278.6 								"/>
								<g id="XMLID_5092_">
									<path id="XMLID_5093_" fill="#56D8D8" d="M219.2,306c-0.3,0-0.6-0.1-0.8-0.2l-0.4-0.2c-0.2-0.1-0.3-0.4-0.2-0.6l0,0
										c0.1-0.2,0.4-0.3,0.6-0.2l0.4,0.2c0.3,0.2,0.6,0.2,0.9,0l2.8-1.5l-0.5-0.3c-0.2-0.1-0.3-0.4-0.1-0.6l0,0
										c0.1-0.2,0.4-0.3,0.6-0.2l0.4,0.3c0.3,0.2,0.4,0.5,0.4,0.8s-0.2,0.6-0.5,0.8l-2.8,1.5C219.8,305.9,219.5,306,219.2,306z"/>
								</g>
								<g id="XMLID_5090_">
									<path id="XMLID_5091_" fill="#56D8D8" d="M228.8,300.6c-0.3,0-0.6-0.1-0.8-0.2l-0.4-0.2c-0.2-0.1-0.3-0.4-0.2-0.6l0,0
										c0.1-0.2,0.4-0.3,0.6-0.2l0.4,0.2c0.3,0.2,0.6,0.2,0.9,0l2.8-1.5l-0.5-0.3c-0.2-0.1-0.3-0.4-0.1-0.6l0,0
										c0.1-0.2,0.4-0.3,0.6-0.2l0.4,0.3c0.3,0.2,0.4,0.5,0.4,0.8c0,0.3-0.2,0.6-0.5,0.8l-2.8,1.5
										C229.4,300.6,229.1,300.6,228.8,300.6z"/>
								</g>
							</g>
							<g id="XMLID_5051_">
								<g id="XMLID_5062_">
									<polygon id="XMLID_5088_" fill="#A3A3A3" points="226.7,190 226.7,151.8 299.4,193.8 299.4,232.5 									"/>
									<polygon id="XMLID_5087_" fill="#DFDFDF" points="226.7,150.6 253.8,134.9 326.4,176.9 299.4,192.4 									"/>
									<polygon id="XMLID_5086_" fill="#A3A3A3" points="299.8,192.6 299.4,196 226.7,154.4 226.7,150.8 									"/>
									<polygon id="XMLID_5085_" fill="#FFFFFF" points="229.4,152.3 253.8,138.2 326.4,180.1 302.1,194.1 									"/>
									<path id="XMLID_5069_" fill="#383838" d="M253.7,134.1L226,150.2v40.2l73.4,42.9l27.7-16.1v-40.7L253.7,134.1z
										 M227.3,155.5l5.3,3v34.2l-5.2-3L227.3,155.5z M286.6,189.4l5.6,3.2v34.9l-5.6-3.3l0,0V189.4z M285.6,223.6l-5.6-3.3v-34.7
										l5.6,3.2V223.6z M279,185.1v34.6l-5.6-3.3v-34.6l5.8,3.3H279L279,185.1z M272.3,215.8l-5.6-3.3V178l5.6,3.2V215.8z
										 M265.7,211.9l-5.6-3.3v-34.5l5.6,3.2V211.9z M259.1,208.1l-5.5-3.2v-34.4l5.5,3.2V208.1z M252.5,204.2l-5.6-3.3v-34.3
										l5.6,3.2V204.2z M245.9,200.4l-5.6-3.3v-34.3l5.6,3.2V200.4z M239.2,196.5l-5.6-3.3V159l5.6,3.2V196.5z M298.7,231.2
										l-5.5-3.2v-34.9l5.5,3.1V231.2z M298.7,193.2v0.2v1.5L227.3,154v-2.4l71.4,41.1V193.2z M299.4,191.6l-71.3-40.9l25.6-14.9
										l71.2,41.2L299.4,191.6z"/>
									<polygon id="XMLID_5068_" fill="#DFDFDF" points="327.1,179.9 327.1,178.6 298.8,194.9 298.8,196.2 313.1,188 313.1,225.3 
										314.1,224.7 314.1,187.4 									"/>
									<g id="XMLID_5066_">
										<path id="XMLID_5067_" fill="#DFDFDF" d="M307.5,214.8c-0.3,0-0.6-0.1-0.9-0.2l-0.4-0.2c-0.2-0.1-0.3-0.4-0.2-0.6l0,0
											c0.1-0.2,0.4-0.3,0.6-0.2l0.4,0.2c0.3,0.2,0.6,0.2,0.9,0l2.8-1.5l-0.4-0.3c-0.2-0.1-0.3-0.4-0.2-0.6l0,0
											c0.1-0.2,0.4-0.3,0.6-0.2l0.4,0.3c0.3,0.2,0.4,0.5,0.4,0.8c0,0.3-0.2,0.6-0.5,0.8l-2.8,1.5
											C308.2,214.7,307.8,214.8,307.5,214.8z"/>
									</g>
									<g id="XMLID_5063_">
										<path id="XMLID_5064_" fill="#DFDFDF" d="M317.2,209.4c-0.3,0-0.6-0.1-0.9-0.2l-0.4-0.2c-0.2-0.1-0.3-0.4-0.2-0.6l0,0
											c0.1-0.2,0.4-0.3,0.6-0.2l0.4,0.2c0.3,0.2,0.6,0.2,0.9,0l2.8-1.5l-0.4-0.3c-0.2-0.1-0.3-0.4-0.1-0.6l0,0
											c0.1-0.2,0.4-0.3,0.6-0.2l0.4,0.2c0.3,0.2,0.4,0.5,0.4,0.8c0,0.3-0.2,0.6-0.5,0.8l-2.8,1.5
											C317.8,209.3,317.5,209.4,317.2,209.4z"/>
									</g>
								</g>
								<g id="XMLID_5052_">
									<polygon id="XMLID_5061_" fill="#01949A" points="306.9,172 292.6,163.8 278.3,172 278.3,176 292.6,184.3 292.6,180.3 
																			"/>
									<path id="XMLID_5057_" fill="#383838" d="M306.9,171.5L306.9,171.5l-14.3-8.2l-14.8,8.5v0.6v4l14.3,8.2l0,0l0.5,0.3
										l14.8-8.5v-4v-0.6L306.9,171.5z M305.8,172l-13.2,7.7l-13.3-7.7l13.3-7.6L305.8,172z M278.8,175.8V173l5.5,3.2l7.8,4.5v2.8
										L278.8,175.8z"/>
									<polygon id="XMLID_5056_" fill="#56D8D8" points="300.2,172.9 292.6,177.2 285,172.9 292.6,168.5 									"/>
									<path id="XMLID_5053_" fill="#383838" d="M292.6,177.8l-10-5.7l10-5.7l10,5.7L292.6,177.8z M284.7,172l7.9,4.6l7.9-4.6
										l-7.9-4.6L284.7,172z"/>
								</g>
							</g>
							<g id="XMLID_4725_">
								<g id="XMLID_4736_">
									<polygon id="XMLID_5050_" fill="#A3A3A3" points="108.9,298.5 108.9,260.2 181.6,302.2 181.6,340.9 									"/>
									<polygon id="XMLID_5049_" fill="#DFDFDF" points="108.9,259.1 135.9,243.3 208.6,285.3 181.6,300.8 									"/>
									<polygon id="XMLID_5047_" fill="#A3A3A3" points="182,301.1 181.6,304.4 108.9,262.8 108.9,259.3 									"/>
									<polygon id="XMLID_5046_" fill="#FFFFFF" points="111.6,260.8 135.9,246.6 208.6,288.6 184.3,302.5 									"/>
									<path id="XMLID_4770_" fill="#383838" d="M135.9,242.5l-27.7,16.2v40.2l73.4,42.9l27.7-16.1V285L135.9,242.5z M109.5,263.9
										l5.3,3v34.2l-5.2-3L109.5,263.9z M168.8,297.8l5.6,3.2v34.9l-5.6-3.3l0,0V297.8z M167.8,332l-5.6-3.3V294l5.6,3.2V332z
										 M161.1,293.5v34.6l-5.6-3.3v-34.6l5.8,3.3H161.1z M154.5,324.3l-5.6-3.3v-34.6l5.6,3.2V324.3z M147.9,320.4l-5.6-3.3
										v-34.5l5.6,3.2V320.4z M141.2,316.5l-5.5-3.2v-34.4l5.5,3.2V316.5z M134.7,312.7l-5.6-3.3v-34.3l5.6,3.2V312.7z M128,308.8
										l-5.6-3.3v-34.3l5.6,3.2V308.8z M121.4,304.9l-5.6-3.3v-34.2l5.6,3.2V304.9z M180.9,339.7l-5.5-3.2v-34.9l5.5,3.1V339.7z
										 M180.9,301.6v0.2v1.5l-71.4-40.8v-2.4l71.4,41.1V301.6z M181.6,300l-71.3-40.9l25.6-14.9l71.2,41.1L181.6,300z"/>
									<polygon id="XMLID_4769_" fill="#DFDFDF" points="209.3,288.3 209.3,287 181,303.4 181,304.7 195.3,296.4 195.3,333.8 
										196.3,333.2 196.3,295.8 									"/>
									<g id="XMLID_4752_">
										<path id="XMLID_4753_" fill="#DFDFDF" d="M189.7,323.2c-0.3,0-0.6-0.1-0.9-0.2l-0.4-0.2c-0.2-0.1-0.3-0.4-0.2-0.6l0,0
											c0.1-0.2,0.4-0.3,0.6-0.2l0.4,0.2c0.3,0.2,0.6,0.2,0.9,0l2.8-1.5l-0.4-0.3c-0.2-0.1-0.3-0.4-0.2-0.6l0,0
											c0.1-0.2,0.4-0.3,0.6-0.2l0.4,0.3c0.3,0.2,0.4,0.5,0.4,0.8c0,0.3-0.2,0.6-0.5,0.8l-2.8,1.5
											C190.3,323.2,190,323.2,189.7,323.2z"/>
									</g>
									<g id="XMLID_4737_">
										<path id="XMLID_4738_" fill="#DFDFDF" d="M199.3,317.8c-0.3,0-0.6-0.1-0.9-0.2l-0.4-0.2c-0.2-0.1-0.3-0.4-0.2-0.6l0,0
											c0.1-0.2,0.4-0.3,0.6-0.2l0.4,0.2c0.3,0.2,0.6,0.2,0.9,0l2.8-1.5l-0.4-0.3c-0.2-0.1-0.3-0.4-0.2-0.6l0,0
											c0.1-0.2,0.4-0.3,0.6-0.2l0.4,0.3c0.3,0.2,0.4,0.5,0.4,0.8c0,0.3-0.2,0.6-0.5,0.8l-2.8,1.5
											C200,317.8,199.6,317.8,199.3,317.8z"/>
									</g>
								</g>
								<g id="XMLID_4726_">
									<polygon id="XMLID_4735_" fill="#01949A" points="150.1,257.5 135.9,249.2 121.6,257.5 121.6,261.5 135.9,269.7 
										135.9,265.7 									"/>
									<path id="XMLID_4731_" fill="#383838" d="M150.1,256.9L150.1,256.9l-14.3-8.2l-14.8,8.5v0.6v4l14.3,8.2l0,0l0.5,0.3
										l14.8-8.5v-4v-0.6L150.1,256.9z M149.1,257.5l-13.3,7.6l-13.3-7.6l13.3-7.7L149.1,257.5z M122.1,261.2v-2.8l5.5,3.2
										l7.8,4.5v2.8L122.1,261.2z"/>
									<polygon id="XMLID_4730_" fill="#56D8D8" points="143.5,258.3 135.9,262.6 128.3,258.3 135.9,254 									"/>
									<path id="XMLID_4727_" fill="#383838" d="M135.9,263.2l-10-5.7l10-5.7l10,5.7L135.9,263.2z M128,257.5l7.9,4.6l7.9-4.6
										l-7.9-4.6L128,257.5z"/>
								</g>
							</g>
							<g id="XMLID_4700_">
								<polygon id="XMLID_4724_" fill="#A3A3A3" points="79.5,315.7 79.5,277.4 152.2,319.4 152.2,358.1 								"/>
								<polygon id="XMLID_4723_" fill="#DFDFDF" points="79.5,276.3 106.5,260.6 179.2,302.5 152.2,318 								"/>
								<polygon id="XMLID_4722_" fill="#A3A3A3" points="152.6,318.3 152.2,321.7 79.5,280 79.5,276.5 								"/>
								<polygon id="XMLID_4721_" fill="#FFFFFF" points="82.2,278 106.5,263.8 179.2,305.8 154.9,319.7 								"/>
								<path id="XMLID_4706_" fill="#383838" d="M106.5,259.7l-27.7,16.2v40.2l73.4,42.9l27.7-16.1v-40.7L106.5,259.7z M80.1,281.1
									l5.3,3v34.2l-5.2-3L80.1,281.1z M139.3,315l5.6,3.2v34.9l-5.7-3.3l0,0L139.3,315L139.3,315z M138.3,349.2l-5.6-3.3v-34.7
									l5.6,3.2V349.2z M131.7,310.7v34.6l-5.6-3.3v-34.6l5.8,3.3H131.7z M125.1,341.5l-5.6-3.3v-34.6l5.6,3.2V341.5z M118.4,337.6
									l-5.6-3.3v-34.5l5.6,3.2V337.6z M111.8,333.7l-5.5-3.2v-34.4l5.5,3.2V333.7z M105.2,329.9l-5.6-3.3v-34.3l5.6,3.2V329.9z
									 M98.6,326l-5.6-3.3v-34.2l5.6,3.2V326z M92,322.2l-5.6-3.3v-34.2l5.6,3.2V322.2z M151.5,356.9l-5.5-3.2v-34.9l5.5,3.1
									V356.9z M151.5,318.9v0.2v1.5l-71.4-40.8v-2.4l71.4,41.1V318.9z M152.2,317.2l-71.3-40.9l25.6-14.9l71.2,41.1L152.2,317.2z"
									/>
								<polygon id="XMLID_4705_" fill="#DFDFDF" points="179.9,305.5 179.9,304.2 151.6,320.6 151.6,321.9 165.8,313.6 165.8,351 
									166.9,350.4 166.9,313.1 								"/>
								<g id="XMLID_4703_">
									<path id="XMLID_4704_" fill="#DFDFDF" d="M160.3,340.4c-0.3,0-0.6-0.1-0.8-0.2L159,340c-0.2-0.1-0.3-0.4-0.2-0.6l0,0
										c0.1-0.2,0.4-0.3,0.6-0.2l0.4,0.2c0.3,0.2,0.6,0.2,0.9,0l2.8-1.5l-0.4-0.3c-0.2-0.1-0.3-0.4-0.2-0.6l0,0
										c0.1-0.2,0.4-0.3,0.6-0.2l0.4,0.2c0.3,0.2,0.4,0.5,0.4,0.8c0,0.3-0.2,0.6-0.5,0.8l-2.8,1.5
										C160.9,340.4,160.6,340.5,160.3,340.4z"/>
								</g>
								<g id="XMLID_4701_">
									<path id="XMLID_4702_" fill="#DFDFDF" d="M169.9,335.1c-0.3,0-0.6-0.1-0.8-0.2l-0.4-0.2c-0.2-0.1-0.3-0.4-0.2-0.6l0,0
										c0.1-0.2,0.4-0.3,0.6-0.2l0.4,0.2c0.3,0.2,0.6,0.2,0.9,0l2.8-1.5l-0.4-0.3c-0.2-0.1-0.3-0.4-0.2-0.6l0,0
										c0.1-0.2,0.4-0.3,0.6-0.2l0.4,0.3c0.3,0.2,0.4,0.5,0.4,0.8c0,0.3-0.2,0.6-0.5,0.8l-2.8,1.5
										C170.5,335,170.2,335.1,169.9,335.1z"/>
								</g>
							</g>
							<g id="XMLID_4664_">
								<g id="XMLID_4675_">
									<polygon id="XMLID_4699_" fill="#56D8D8" points="197.3,207.2 197.3,169 270,211 270,249.7 									"/>
									<polygon id="XMLID_4698_" fill="#DB1F48" points="197.3,167.9 224.3,152.1 297,194.1 270,209.6 									"/>
									<polygon id="XMLID_4697_" fill="#DB1F48" points="270.4,209.9 270,213.2 197.3,171.6 197.3,168 									"/>
									<polygon id="XMLID_4696_" fill="#F44573" points="200,169.5 224.3,155.4 297,197.4 272.7,211.3 									"/>
									<path id="XMLID_4681_" fill="#383838" d="M224.3,151.3l-27.8,16.2v40.2l73.4,42.9l27.7-16.1v-40.7L224.3,151.3z
										 M197.9,172.7l5.3,3v34.2l-5.2-3L197.9,172.7z M257.2,206.6l5.6,3.2v34.9l-5.6-3.3l0,0V206.6z M256.2,240.8l-5.6-3.3v-34.7
										l5.6,3.2V240.8z M249.5,202.3v34.6l-5.6-3.3V199l5.8,3.3H249.5z M242.9,233l-5.6-3.3v-34.6l5.6,3.2V233z M236.3,229.2
										l-5.6-3.3v-34.5l5.6,3.2V229.2z M229.6,225.3l-5.5-3.2v-34.4l5.5,3.2V225.3z M223.1,221.5l-5.6-3.3v-34.3l5.6,3.2V221.5z
										 M216.4,217.6l-5.6-3.3V180l5.6,3.2V217.6z M209.8,213.7l-5.6-3.3v-34.2l5.6,3.2V213.7z M269.3,248.5l-5.5-3.2v-34.9
										l5.5,3.1V248.5z M269.3,210.4v0.2v1.5l-71.4-40.8v-2.4l71.4,41.1V210.4z M270,208.8l-71.3-40.9l25.6-14.9l71.2,41.1
										L270,208.8z"/>
									<polygon id="XMLID_4680_" fill="#56D8D8" points="297.7,197.1 297.7,195.8 269.4,212.2 269.4,213.5 283.7,205.2 
										283.7,242.6 284.7,242 284.7,204.6 									"/>
									<g id="XMLID_4678_">
										<path id="XMLID_4679_" fill="#56D8D8" d="M278.1,232c-0.3,0-0.6-0.1-0.8-0.2l-0.4-0.2c-0.2-0.1-0.3-0.4-0.2-0.6l0,0
											c0.1-0.2,0.4-0.3,0.6-0.2l0.4,0.2c0.3,0.2,0.6,0.2,0.9,0l2.8-1.5l-0.4-0.3c-0.2-0.1-0.3-0.4-0.1-0.6l0,0
											c0.1-0.2,0.4-0.3,0.6-0.2l0.4,0.2c0.3,0.2,0.5,0.5,0.4,0.8c0,0.3-0.2,0.6-0.5,0.8l-2.8,1.5
											C278.7,231.9,278.4,232,278.1,232z"/>
									</g>
									<g id="XMLID_4676_">
										<path id="XMLID_4677_" fill="#56D8D8" d="M287.8,226.6c-0.3,0-0.6-0.1-0.8-0.2l-0.4-0.2c-0.2-0.1-0.3-0.4-0.2-0.6l0,0
											c0.1-0.2,0.4-0.3,0.6-0.2l0.4,0.2c0.3,0.2,0.6,0.2,0.9,0l2.8-1.5l-0.4-0.3c-0.2-0.1-0.3-0.4-0.1-0.6l0,0
											c0.1-0.2,0.4-0.3,0.6-0.2l0.4,0.3c0.3,0.2,0.5,0.5,0.4,0.8c0,0.3-0.2,0.6-0.5,0.8l-2.8,1.5
											C288.4,226.6,288.1,226.6,287.8,226.6z"/>
									</g>
								</g>
								<g id="XMLID_4665_">
									<polygon id="XMLID_4674_" fill="#01949A" points="238.6,166.1 224.3,157.8 210,166.1 210,170.1 224.3,178.3 224.3,174.3 
																			"/>
									<path id="XMLID_4670_" fill="#383838" d="M238.6,165.5L238.6,165.5l-14.3-8.2l-14.8,8.5v0.6v4l14.3,8.2l0,0l0.5,0.3
										l14.8-8.5v-4v-0.6L238.6,165.5z M237.5,166.1l-13.3,7.6l-13.2-7.6l13.2-7.7L237.5,166.1z M210.5,169.8V167l5.5,3.2l7.8,4.5
										v2.8L210.5,169.8z"/>
									<polygon id="XMLID_4669_" fill="#56D8D8" points="231.9,166.9 224.3,171.2 216.7,166.9 224.3,162.6 									"/>
									<path id="XMLID_4666_" fill="#383838" d="M224.3,171.8l-9.9-5.7l9.9-5.7l10,5.7L224.3,171.8z M216.4,166.1l7.9,4.6l7.9-4.6
										l-7.9-4.6L216.4,166.1z"/>
								</g>
							</g>
							<g id="XMLID_4496_">
								<polygon id="XMLID_4663_" fill="#A3A3A3" points="167.9,224.5 167.9,186.2 240.6,228.2 240.6,266.9 								"/>
								<polygon id="XMLID_4662_" fill="#DFDFDF" points="167.9,185.1 194.9,169.3 267.6,211.3 240.6,226.8 								"/>
								<polygon id="XMLID_4661_" fill="#A3A3A3" points="241,227.1 240.6,230.4 167.9,188.8 167.9,185.3 								"/>
								<polygon id="XMLID_4660_" fill="#FFFFFF" points="170.6,186.8 194.9,172.6 267.6,214.6 243.3,228.5 								"/>
								<path id="XMLID_4505_" fill="#383838" d="M194.9,168.5l-27.7,16.2v40.2l73.4,42.9l27.7-16.1V211L194.9,168.5z M168.5,189.9
									l5.3,3v34.2l-5.2-3L168.5,189.9z M227.8,223.8l5.6,3.2v34.9l-5.6-3.3l0,0V223.8z M226.7,258l-5.6-3.3V220l5.6,3.2V258z
									 M220.1,219.5v34.6l-5.6-3.3v-34.6l5.8,3.3H220.1z M213.5,250.3l-5.6-3.3v-34.6l5.6,3.2V250.3z M206.8,246.4l-5.6-3.3v-34.5
									l5.6,3.2V246.4z M200.2,242.5l-5.5-3.2v-34.4l5.5,3.2V242.5z M193.7,238.7l-5.6-3.3v-34.3l5.6,3.2V238.7z M187,234.8
									l-5.6-3.3v-34.3l5.6,3.2V234.8z M180.4,230.9l-5.6-3.3v-34.2l5.6,3.2V230.9z M239.9,265.7l-5.5-3.2v-34.9l5.5,3.1V265.7z
									 M239.9,227.6v0.2v1.5l-71.4-40.8v-2.4l71.4,41.1V227.6z M240.6,226l-71.3-40.9l25.6-14.9l71.2,41.2L240.6,226z"/>
								<polygon id="XMLID_4504_" fill="#DFDFDF" points="268.3,214.3 268.3,213 240,229.4 240,230.7 254.3,222.4 254.3,259.8 
									255.3,259.2 255.3,221.8 								"/>
								<g id="XMLID_4502_">
									<path id="XMLID_4503_" fill="#DFDFDF" d="M248.7,249.2c-0.3,0-0.6-0.1-0.9-0.2l-0.4-0.2c-0.2-0.1-0.3-0.4-0.2-0.6l0,0
										c0.1-0.2,0.4-0.3,0.6-0.2l0.4,0.2c0.3,0.2,0.6,0.2,0.9,0l2.8-1.5l-0.4-0.3c-0.2-0.1-0.3-0.4-0.1-0.6l0,0
										c0.1-0.2,0.4-0.3,0.6-0.2l0.4,0.3c0.3,0.2,0.4,0.5,0.4,0.8c0,0.3-0.2,0.6-0.5,0.8l-2.8,1.5
										C249.3,249.2,249,249.2,248.7,249.2z"/>
								</g>
								<g id="XMLID_4497_">
									<path id="XMLID_4501_" fill="#DFDFDF" d="M258.3,243.8c-0.3,0-0.6-0.1-0.9-0.2l-0.4-0.2c-0.2-0.1-0.3-0.4-0.2-0.6l0,0
										c0.1-0.2,0.4-0.3,0.6-0.2l0.4,0.2c0.3,0.2,0.6,0.2,0.9,0l2.8-1.5l-0.4-0.3c-0.2-0.1-0.3-0.4-0.2-0.6l0,0
										c0.1-0.2,0.4-0.3,0.6-0.2l0.4,0.2c0.3,0.2,0.4,0.5,0.4,0.8c0,0.3-0.2,0.6-0.5,0.8l-2.8,1.5
										C258.9,243.8,258.6,243.8,258.3,243.8z"/>
								</g>
							</g>
							<g id="XMLID_4371_">
								<g id="XMLID_4382_">
									<polygon id="XMLID_4491_" fill="#01949A" points="138.4,241.7 138.4,203.4 211.1,245.4 211.1,284.1 									"/>
									<polygon id="XMLID_4490_" fill="#01949A" points="138.4,202.3 165.4,186.6 238.1,228.5 211.1,244 									"/>
									<polygon id="XMLID_4489_" fill="#56D8D8" points="211.5,244.3 211.1,247.7 138.4,206 138.4,202.5 									"/>
									<polygon id="XMLID_4488_" fill="#56D8D8" points="140.9,203.9 165.4,189.8 238.1,231.8 213.8,245.7 									"/>
									<path id="XMLID_4388_" fill="#383838" d="M165.4,185.7l-27.7,16.2v40.2l73.4,42.9l27.7-16.1v-40.7L165.4,185.7z M139,207.1
										l5.3,3v34.2l-5.2-3L139,207.1z M198.3,241l5.6,3.2v34.9l-5.6-3.3l0,0V241z M197.3,275.2l-5.6-3.3v-34.7l5.6,3.2V275.2z
										 M190.6,236.7v34.6L185,268v-34.6l5.8,3.3H190.6z M184,267.5l-5.6-3.3v-34.6l5.6,3.2V267.5z M177.4,263.6l-5.6-3.3v-34.5
										l5.6,3.2V263.6z M170.7,259.7l-5.5-3.2v-34.4l5.5,3.2V259.7z M164.2,255.9l-5.6-3.3v-34.3l5.6,3.2V255.9z M157.5,252
										l-5.6-3.3v-34.3l5.6,3.2V252z M150.9,248.2l-5.6-3.3v-34.2l5.6,3.2V248.2z M210.4,282.9l-5.5-3.2v-34.9l5.5,3.1V282.9z
										 M210.4,244.9v0.2v1.5L139,205.7v-2.4l71.4,41.1V244.9z M211.1,243.2l-71.3-40.9l25.6-14.9l71.2,41.2L211.1,243.2z"/>
									<polygon id="XMLID_4387_" fill="#01949A" points="238.8,231.5 238.8,230.2 210.5,246.6 210.5,247.9 224.8,239.6 224.8,277 
										225.8,276.4 225.8,239.1 									"/>
									<g id="XMLID_4385_">
										<path id="XMLID_4386_" fill="#01949A" d="M219.2,266.4c-0.3,0-0.6-0.1-0.8-0.2L218,266c-0.2-0.1-0.3-0.4-0.2-0.6l0,0
											c0.1-0.2,0.4-0.3,0.6-0.2l0.4,0.2c0.3,0.2,0.6,0.2,0.9,0l2.8-1.5l-0.5-0.3c-0.2-0.1-0.3-0.4-0.1-0.6l0,0
											c0.1-0.2,0.4-0.3,0.6-0.2l0.4,0.2c0.3,0.2,0.4,0.5,0.4,0.8c0,0.3-0.2,0.6-0.5,0.8l-2.8,1.5
											C219.8,266.4,219.5,266.4,219.2,266.4z"/>
									</g>
									<g id="XMLID_4383_">
										<path id="XMLID_4384_" fill="#01949A" d="M228.9,261.1c-0.3,0-0.6-0.1-0.8-0.2l-0.4-0.2c-0.2-0.1-0.3-0.4-0.2-0.6l0,0
											c0.1-0.2,0.4-0.3,0.6-0.2l0.4,0.2c0.3,0.2,0.6,0.2,0.9,0l2.8-1.5l-0.5-0.3c-0.2-0.1-0.3-0.4-0.1-0.6l0,0
											c0.1-0.2,0.4-0.3,0.6-0.2l0.4,0.3c0.3,0.2,0.4,0.5,0.4,0.8c0,0.3-0.2,0.6-0.5,0.8l-2.8,1.5
											C229.5,261,229.2,261.1,228.9,261.1z"/>
									</g>
								</g>
								<g id="XMLID_4372_">
									<polygon id="XMLID_4381_" fill="#01949A" points="219.4,224 205.1,215.7 190.8,224 190.8,228 205.1,236.2 205.1,232.2 
																			"/>
									<path id="XMLID_4377_" fill="#383838" d="M219.4,223.4L219.4,223.4l-14.3-8.2l-14.8,8.5v0.6v4l14.3,8.2l0,0l0.5,0.3
										l14.8-8.5v-4v-0.6L219.4,223.4z M218.4,224l-13.3,7.6l-13.3-7.6l13.3-7.7L218.4,224z M191.4,227.7v-2.8l5.5,3.2l7.8,4.5
										v2.8L191.4,227.7z"/>
									<polygon id="XMLID_4376_" fill="#56D8D8" points="212.7,224.9 205.1,229.1 197.5,224.9 205.1,220.5 									"/>
									<path id="XMLID_4373_" fill="#383838" d="M205.1,229.7l-10-5.7l10-5.7l10,5.7L205.1,229.7z M197.2,224l7.9,4.6l7.9-4.6
										l-7.9-4.6L197.2,224z"/>
								</g>
							</g>
						</g>
					</g>
				</g>
			</g>
		</g>
	</g>
</g>
</svg>
